<?xml version="1.0" encoding="UTF-8" standalone="no"?>
<!DOCTYPE svg PUBLIC "-//W3C//DTD SVG 1.1//EN" "http://www.w3.org/Graphics/SVG/1.1/DTD/svg11.dtd">
<svg version="1.1" xmlns="http://www.w3.org/2000/svg" xmlns:xlink="http://www.w3.org/1999/xlink" preserveAspectRatio="xMidYMid meet" viewBox="0 0 640 640" width="40" height="40"><defs><path d="M-11.55 320C-11.55 184.47 -71.51 74.8 -145.3 74.8C-67.28 74.8 556.88 74.8 634.9 74.8C708.69 74.8 768.65 184.47 768.65 320C768.65 455.53 708.68 565.2 634.9 565.2C582.89 565.2 322.82 565.2 -145.3 565.2C-56.13 492.09 -11.55 410.35 -11.55 320Z" id="bx8CVNKdN"></path><path d="M-11.55 320C-11.55 455.53 -71.51 565.2 -145.3 565.2C-219.08 565.2 -279.04 455.53 -279.04 320C-279.04 184.47 -219.08 74.8 -145.3 74.8C-71.51 74.8 -11.55 184.47 -11.55 320Z" id="bNy9CjEmK"></path><path d="M634.9 565.2C708.69 565.2 768.65 455.53 768.65 320C690.63 320 66.47 320 -11.55 320C-11.55 455.53 -71.51 565.2 -145.3 565.2C10.74 565.2 556.88 565.2 634.9 565.2Z" id="b2J47hSIxl"></path><path d="M-200.13 230.17C-211.49 257.44 -217.74 293.3 -217.74 331.15C-214.4 331.15 -187.65 331.15 -184.31 331.15C-184.31 255.42 -158.53 214.12 -145.3 214.12C-145.3 211.89 -145.3 200.74 -145.3 180.68C-172.99 192.4 -191.26 208.9 -200.13 230.17Z" id="f4yJ6rDUtH"></path><path d="M-106.29 331.15C-106.29 406.87 -132.06 448.18 -145.3 448.18C-145.3 451.52 -145.3 478.27 -145.3 481.61C-123.23 481.61 -103.76 464.03 -90.46 432.12C-79.1 404.85 -72.85 368.99 -72.85 331.15C-79.54 331.15 -102.94 331.15 -106.29 331.15Z" id="c2Asg5ZVkL"></path><path d="M-312.96 364.58C-312.96 364.58 -312.96 364.58 -312.96 364.58C-312.96 391.33 -312.96 406.19 -312.96 409.16C-312.96 409.16 -312.96 409.16 -312.96 409.16C-333.02 409.16 -344.16 409.16 -346.39 409.16C-346.39 409.16 -346.39 409.16 -346.39 409.16C-346.39 382.42 -346.39 367.55 -346.39 364.58C-346.39 364.58 -346.39 364.58 -346.39 364.58C-326.33 364.58 -315.19 364.58 -312.96 364.58Z" id="bYoWZ88II"></path><path d="M-72.85 253.13C-72.85 253.13 -72.85 253.13 -72.85 253.13C-72.85 279.87 -72.85 294.73 -72.85 297.71C-72.85 297.71 -72.85 297.71 -72.85 297.71C-92.91 297.71 -104.06 297.71 -106.29 297.71C-106.29 297.71 -106.29 297.71 -106.29 297.71C-106.29 270.96 -106.29 256.1 -106.29 253.13C-106.29 253.13 -106.29 253.13 -106.29 253.13C-86.22 253.13 -75.08 253.13 -72.85 253.13Z" id="c167HCQqW3"></path><path d="M640 376.62C640 376.62 640 376.62 640 376.62C640 396.68 640 407.83 640 410.06C640 410.06 640 410.06 640 410.06C613.25 410.06 598.39 410.06 595.42 410.06C595.42 410.06 595.42 410.06 595.42 410.06C595.42 389.99 595.42 378.85 595.42 376.62C595.42 376.62 595.42 376.62 595.42 376.62C622.17 376.62 637.03 376.62 640 376.62Z" id="a8BUXXMyO"></path><path d="M555.95 454.78C555.95 454.78 555.95 454.78 555.95 454.78C555.95 474.84 555.95 485.98 555.95 488.21C555.95 488.21 555.95 488.21 555.95 488.21C348.64 488.21 233.47 488.21 210.43 488.21C210.43 488.21 210.43 488.21 210.43 488.21C210.43 468.15 210.43 457.01 210.43 454.78C210.43 454.78 210.43 454.78 210.43 454.78C417.74 454.78 532.91 454.78 555.95 454.78Z" id="a7P6BcTvy7"></path><path d="M88.76 269.84C88.76 269.84 88.76 269.84 88.76 269.84C88.76 289.91 88.76 301.05 88.76 303.28C88.76 303.28 88.76 303.28 88.76 303.28C-21.38 303.28 -82.57 303.28 -94.81 303.28C-94.81 303.28 -94.81 303.28 -94.81 303.28C-94.81 283.22 -94.81 272.07 -94.81 269.84C-94.81 269.84 -94.81 269.84 -94.81 269.84C15.33 269.84 76.52 269.84 88.76 269.84Z" id="d19bTIoQ9U"></path><path d="M396.45 159.54C396.45 159.54 396.45 159.54 396.45 159.54C396.45 179.6 396.45 190.74 396.45 192.97C396.45 192.97 396.45 192.97 396.45 192.97C133.88 192.97 -11.99 192.97 -41.16 192.97C-41.16 192.97 -41.16 192.97 -41.16 192.97C-41.16 172.91 -41.16 161.76 -41.16 159.54C-41.16 159.54 -41.16 159.54 -41.16 159.54C221.4 159.54 367.27 159.54 396.45 159.54Z" id="ab2n5tMS"></path><path d="M342.29 231.21C342.29 231.21 342.29 231.21 342.29 231.21C342.29 251.28 342.29 262.42 342.29 264.65C342.29 264.65 342.29 264.65 342.29 264.65C315.54 264.65 300.68 264.65 297.71 264.65C297.71 264.65 297.71 264.65 297.71 264.65C297.71 244.59 297.71 233.44 297.71 231.21C297.71 231.21 297.71 231.21 297.71 231.21C324.46 231.21 339.32 231.21 342.29 231.21Z" id="b3xb54fUud"></path></defs><g><g><g><use xlink:href="#bx8CVNKdN" opacity="1" fill="#a26234" fill-opacity="1"></use><g><use xlink:href="#bx8CVNKdN" opacity="1" fill-opacity="0" stroke="#000000" stroke-width="1" stroke-opacity="0"></use></g></g><g><use xlink:href="#bNy9CjEmK" opacity="1" fill="#bc723e" fill-opacity="1"></use><g><use xlink:href="#bNy9CjEmK" opacity="1" fill-opacity="0" stroke="#000000" stroke-width="1" stroke-opacity="0"></use></g></g><g><use xlink:href="#b2J47hSIxl" opacity="1" fill="#845027" fill-opacity="1"></use><g><use xlink:href="#b2J47hSIxl" opacity="1" fill-opacity="0" stroke="#000000" stroke-width="1" stroke-opacity="0"></use></g></g><g><use xlink:href="#f4yJ6rDUtH" opacity="1" fill="#845027" fill-opacity="1"></use><g><use xlink:href="#f4yJ6rDUtH" opacity="1" fill-opacity="0" stroke="#000000" stroke-width="1" stroke-opacity="0"></use></g></g><g><use xlink:href="#c2Asg5ZVkL" opacity="1" fill="#845027" fill-opacity="1"></use><g><use xlink:href="#c2Asg5ZVkL" opacity="1" fill-opacity="0" stroke="#000000" stroke-width="1" stroke-opacity="0"></use></g></g><g><use xlink:href="#bYoWZ88II" opacity="1" fill="#845027" fill-opacity="1"></use><g><use xlink:href="#bYoWZ88II" opacity="1" fill-opacity="0" stroke="#000000" stroke-width="1" stroke-opacity="0"></use></g></g><g><use xlink:href="#c167HCQqW3" opacity="1" fill="#845027" fill-opacity="1"></use><g><use xlink:href="#c167HCQqW3" opacity="1" fill-opacity="0" stroke="#000000" stroke-width="1" stroke-opacity="0"></use></g></g><g><use xlink:href="#a8BUXXMyO" opacity="1" fill="#a26234" fill-opacity="1"></use><g><use xlink:href="#a8BUXXMyO" opacity="1" fill-opacity="0" stroke="#000000" stroke-width="1" stroke-opacity="0"></use></g></g><g><use xlink:href="#a7P6BcTvy7" opacity="1" fill="#a26234" fill-opacity="1"></use><g><use xlink:href="#a7P6BcTvy7" opacity="1" fill-opacity="0" stroke="#000000" stroke-width="1" stroke-opacity="0"></use></g></g><g><use xlink:href="#d19bTIoQ9U" opacity="1" fill="#845027" fill-opacity="1"></use><g><use xlink:href="#d19bTIoQ9U" opacity="1" fill-opacity="0" stroke="#000000" stroke-width="1" stroke-opacity="0"></use></g></g><g><use xlink:href="#ab2n5tMS" opacity="1" fill="#845027" fill-opacity="1"></use><g><use xlink:href="#ab2n5tMS" opacity="1" fill-opacity="0" stroke="#000000" stroke-width="1" stroke-opacity="0"></use></g></g><g><use xlink:href="#b3xb54fUud" opacity="1" fill="#845027" fill-opacity="1"></use><g><use xlink:href="#b3xb54fUud" opacity="1" fill-opacity="0" stroke="#000000" stroke-width="1" stroke-opacity="0"></use></g></g></g></g></svg>