<?xml version="1.0" encoding="utf-8"?>
<!-- Generator: Adobe Illustrator 19.0.0, SVG Export Plug-In . SVG Version: 6.00 Build 0)  -->
<svg version="1.1" id="Layer_1" xmlns="http://www.w3.org/2000/svg" xmlns:xlink="http://www.w3.org/1999/xlink" x="0px" y="0px"
	 viewBox="0 0 40 40" style="enable-background:new 0 0 40 40;" xml:space="preserve">
<style type="text/css">
	.st0{fill:#939393;}
	.st1{fill:#515151;}
</style>
<rect id="XMLID_29_" class="st0" width="40" height="40"/>
<g id="XMLID_23_">
	<path id="XMLID_32_" class="st1" d="M0,0.4l4.9-0.2l4.9-0.1L14.8,0c1.6,0,3.3,0,4.9,0c1.6,0,3.3,0,4.9,0L29.6,0
		c3.3,0,6.6,0.1,9.9,0.2l0.3,0l0,0.3c-0.1,3.3-0.2,6.6-0.1,9.9c0,3.3,0.2,6.6,0.2,9.9c0,1.6,0,3.3,0,4.9l-0.1,4.9
		c0,1.6-0.1,3.3-0.1,4.9c0,1.6-0.1,3.3-0.2,4.9h-0.1c-0.1-1.6-0.2-3.3-0.2-4.9c0-1.6-0.1-3.3-0.1-4.9l-0.1-4.9c0-1.6,0-3.3,0-4.9
		c0.1-3.3,0.2-6.6,0.2-9.9c0.1-3.3,0-6.6-0.1-9.9l0.3,0.3c-3.3,0.1-6.6,0.2-9.9,0.2L24.7,1c-1.6,0-3.3,0-4.9,0c-1.6,0-3.3,0-4.9,0
		L9.9,0.9L4.9,0.8L0,0.6V0.4z"/>
</g>
<g id="XMLID_18_">
	<path id="XMLID_30_" class="st1" d="M19.5,40c0,0-0.1-0.6-0.1-1.7c-0.1-1.1-0.2-2.6-0.2-4.4c-0.1-1.8-0.1-4-0.1-6.2
		c0-1.1,0.1-2.3,0.1-3.5c0-1.2,0.1-2.4,0.2-3.6c0.1-1.2,0.1-2.4,0.1-3.6c0-1.2,0-2.4-0.1-3.5c-0.1-1.1-0.1-2.2-0.2-3.3c0-1,0-2,0-3
		c0-0.9,0-1.8,0.1-2.5c0-0.7,0.1-1.4,0.1-1.9C19.4,1.6,19.5,1,19.5,1h0.1c0,0,0.1,0.6,0.2,1.7c0,0.5,0.1,1.2,0.1,1.9
		c0,0.7,0.1,1.6,0.1,2.5c0,0.9,0,1.9,0,3c0,1-0.1,2.2-0.2,3.3c-0.1,1.1-0.1,2.3-0.1,3.5c0,1.2,0,2.4,0.1,3.6
		c0.1,1.2,0.1,2.4,0.2,3.6c0,1.2,0.1,2.4,0.1,3.5c0,2.3,0,4.4-0.1,6.2c-0.1,1.8-0.2,3.4-0.2,4.4C19.6,39.4,19.5,40,19.5,40L19.5,40z
		"/>
</g>
<g id="XMLID_20_">
	<path id="XMLID_27_" class="st1" d="M0,20.5c0,0,0.6-0.1,1.7-0.1c1.1-0.1,2.6-0.2,4.4-0.2c1.8-0.1,4-0.1,6.2-0.1
		c1.1,0,2.3,0.1,3.5,0.1c1.2,0,2.4,0.1,3.6,0.2c1.2,0.1,2.4,0.1,3.6,0.1c1.2,0,2.4,0,3.5-0.1c1.1-0.1,2.2-0.1,3.3-0.2c1,0,2,0,3,0
		c0.9,0,1.8,0,2.5,0.1c0.7,0,1.4,0.1,1.9,0.1c1.1,0.1,1.7,0.2,1.7,0.2v0.1c0,0-0.6,0.1-1.7,0.2c-0.5,0-1.2,0.1-1.9,0.1
		c-0.7,0-1.6,0.1-2.5,0.1c-0.9,0-1.9,0-3,0c-1,0-2.2-0.1-3.3-0.2c-1.1-0.1-2.3-0.1-3.5-0.1c-1.2,0-2.4,0-3.6,0.1
		c-1.2,0.1-2.4,0.1-3.6,0.2c-1.2,0-2.4,0.1-3.5,0.1c-2.3,0-4.4,0-6.2-0.1c-1.8-0.1-3.4-0.2-4.4-0.2C0.6,20.6,0,20.5,0,20.5L0,20.5z"
		/>
</g>
</svg>
