<?xml version="1.0" encoding="utf-8"?>
<!-- Generator: Adobe Illustrator 19.0.0, SVG Export Plug-In . SVG Version: 6.00 Build 0)  -->
<svg version="1.1" id="Layer_1" xmlns="http://www.w3.org/2000/svg" xmlns:xlink="http://www.w3.org/1999/xlink" x="0px" y="0px"
	 viewBox="0 0 40 40" style="enable-background:new 0 0 40 40;" xml:space="preserve">
<style type="text/css">
	.st0{fill:#28A7DF;}
	.st1{fill:#F9FCFB;}
	.st2{fill:#F9FBFB;}
	.st3{fill:#F6FAFA;}
	.st4{fill:#F6FBFA;}
	.st5{fill:#F7FAFB;}
</style>
<rect id="XMLID_12_" class="st0" width="40" height="40"/>
<path id="XMLID_18_" class="st1" d="M15.6,8.5c-0.1,0.8-0.7,0.7-1.5,0.7c-1.3-0.1-2.7-0.6-3.9-1.4C7.5,6,4.7,6,1.8,7.7
	C1.2,8.1,0.6,8.4,0,8.6V7.1c0.5-0.2,1-0.5,1.5-0.8c3-1.8,6.1-1.7,9.1,0c1.2,0.7,2.5,1.3,3.9,1.4C15,7.8,15.7,7.8,15.6,8.5z"/>
<path id="XMLID_17_" class="st1" d="M40,7.1v1.6c-2.6,1-5.2,0.7-7.8-0.9C31,7,29.8,6.6,28.4,6.5c-0.5,0-1-0.1-1-0.7
	C27.5,5,28.1,5,28.6,5c1.4,0.1,2.8,0.5,4,1.2C35,7.9,37.5,8.2,40,7.1z"/>
<path id="XMLID_8_" class="st1" d="M40,18.3v1.6c-0.3-0.1-0.5-0.2-0.8-0.4c-0.7-0.4-1.3-0.8-2.2-0.9c-0.5,0-1.3,0-1.2-0.8
	c0-0.8,0.8-0.6,1.3-0.6c1,0,1.9,0.4,2.7,1C39.9,18.2,40,18.3,40,18.3z"/>
<path id="XMLID_7_" class="st2" d="M15.4,19.8c-0.1,0.5-0.5,0.5-1,0.6c-1.1,0-2-0.3-2.9-0.9c-1.9-1.2-3.7-1.2-5.6-0.1
	C3.9,20.7,2,20.8,0,19.9v-1.6c1.8,1,3.5,1,5.3-0.1c2.2-1.4,4.5-1.3,6.7,0c0.8,0.5,1.6,0.8,2.5,0.8C15,19,15.5,19.3,15.4,19.8z"/>
<path id="XMLID_16_" class="st1" d="M1.5,27.3c0,0.5-0.3,0.7-0.7,0.7c-0.3,0-0.5,0-0.8,0v-1.4c0.2,0,0.4,0,0.7,0
	C1.1,26.6,1.5,26.8,1.5,27.3z"/>
<path id="XMLID_15_" class="st2" d="M40,26.6V28c-1.4,0.2-2.6,0.9-3.9,1.6c-1,0.5-2.1,0.7-3.3,0.7c-1.4,0.1-2.7-0.3-3.9-0.9
	c-1.3-0.7-2.5-1.4-4.1-1.3c-0.5,0-0.9-0.2-0.9-0.7c0-0.6,0.5-0.7,1-0.7c1.4,0,2.7,0.4,3.8,1.1c2.6,1.5,5.2,1.6,7.8,0
	C37.7,27.1,38.8,26.7,40,26.6z"/>
<path class="st3" d="M8.9,33.4c-0.4-0.1-0.7-0.1-1.1-0.2c-0.4-0.1-0.7-0.4-0.6-0.8c0.1-0.4,0.5-0.7,0.8-0.5c1.3,0.4,2.2-0.3,3.3-0.8
	c1.6-0.7,3.5-0.4,4.8,0.7c0.3,0.3,0.6,0.6,0.3,1.1c-0.2,0.4-0.7,0.4-1,0.2c-1.7-1.5-3.3-1-5,0C10,33.3,9.4,33.4,8.9,33.4z"/>
<path class="st4" d="M26.3,13.1c-0.9,0-1.8-0.3-2.5-0.7c-1.3-0.8-2.5-0.7-3.7,0.2c-0.4,0.3-0.9,0.7-1.3,0.1
	c-0.4-0.6,0.1-0.9,0.5-1.2c1.5-1,3-1.4,4.7-0.5c0.9,0.5,1.7,1,2.8,0.8c0.5-0.1,1.1-0.2,1.2,0.6c0.1,0.8-0.6,0.8-1.2,0.9
	C26.6,13.1,26.5,13.1,26.3,13.1z"/>
<path id="XMLID_14_" class="st1" d="M2.5,36.8c0,0.7-0.5,0.8-1,0.8c-0.2,0-0.5,0-0.7,0c-0.3,0-0.5,0-0.8-0.1v-1.5
	c0.4,0.1,0.9,0.2,1.3,0.1C1.8,36.2,2.5,36,2.5,36.8z"/>
<path id="XMLID_13_" class="st5" d="M40,36.1v1.5c-0.6-0.1-1.1-0.4-1.6-0.7c-1.3-0.8-2.6-0.7-3.8,0.2c-0.4,0.3-0.9,0.7-1.3,0
	c-0.4-0.6,0.1-0.9,0.5-1.2c1.5-1,3-1.4,4.7-0.5C39,35.7,39.5,36,40,36.1z"/>
<path id="XMLID_11_" class="st2" d="M26.1,0c-0.4,0.3-0.8,0.6-1.2,0.8c-0.6,0.4-1.3,0.5-2,0.5c-0.9,0-1.8-0.3-2.6-0.9
	c-0.2-0.1-0.3-0.3-0.5-0.4H26.1z"/>
<path id="XMLID_10_" class="st2" d="M29,38.3c0,0.4-0.2,0.7-0.4,0.7c-0.9-0.1-1.7,0.4-2.5,1h-6.2c-0.7-0.5-1.4-1-2.3-1
	c-0.3,0-0.7-0.2-0.6-0.8c0-0.5,0.3-0.6,0.6-0.6c0.9,0,1.7,0.2,2.4,0.9c2,1.8,3.9,1.8,5.9,0c0.8-0.7,1.7-1,2.6-0.9
	C28.8,37.7,29,37.9,29,38.3z"/>
</svg>
