<?xml version="1.0" encoding="UTF-8" standalone="no"?>
<!DOCTYPE svg PUBLIC "-//W3C//DTD SVG 1.1//EN" "http://www.w3.org/Graphics/SVG/1.1/DTD/svg11.dtd">
<svg version="1.1" xmlns="http://www.w3.org/2000/svg" xmlns:xlink="http://www.w3.org/1999/xlink" preserveAspectRatio="xMidYMid meet" viewBox="0 0 640 640" width="40" height="40"><defs><path d="M459.73 249.78C459.73 291.18 439.7 324.68 415.05 324.68C390.39 324.68 370.36 291.18 370.36 249.78C370.36 208.39 390.39 174.89 415.05 174.89C439.7 174.89 459.73 208.39 459.73 249.78Z" id="a1aK77mDMI"></path><path d="M459.73 100C459.73 141.39 439.7 174.89 415.05 174.89C390.39 174.89 370.36 141.39 370.36 99.99C370.36 58.6 390.39 25.1 415.05 25.1C439.7 25.1 459.73 58.6 459.73 100Z" id="e2nvpH4oUA"></path><path d="M447.97 249.78C447.97 208.39 433.21 174.89 415.05 174.89C434.25 174.89 587.88 174.89 607.08 174.89C625.24 174.89 640 208.39 640 249.78C640 291.18 625.24 324.68 607.08 324.68C594.28 324.68 530.27 324.68 415.05 324.68C436.99 302.34 447.97 277.38 447.97 249.78Z" id="cBfIm0FwP"></path><path d="M447.97 99.99C447.97 58.6 433.21 25.1 415.05 25.1C434.25 25.1 587.88 25.1 607.08 25.1C625.24 25.1 640 58.6 640 100C640 141.39 625.24 174.89 607.08 174.89C594.28 174.89 530.27 174.89 415.05 174.89C436.99 152.56 447.97 127.59 447.97 99.99Z" id="a1dKhi8V9R"></path><path d="M607.08 174.89C625.24 174.89 640 141.39 640 99.99C620.8 99.99 467.17 99.99 447.97 99.99C447.97 141.39 433.21 174.89 415.05 174.89C453.45 174.89 587.88 174.89 607.08 174.89Z" id="e1SgBacT4"></path><path d="M607.08 324.68C625.24 324.68 640 291.18 640 249.78C620.8 249.78 467.17 249.78 447.97 249.78C447.97 291.18 433.21 324.68 415.05 324.68C453.45 324.68 587.88 324.68 607.08 324.68Z" id="a6BDWK87uU"></path><path d="M604.34 200.42C604.34 200.42 604.34 200.42 604.34 200.42C604.34 206.55 604.34 209.95 604.34 210.63C604.34 210.63 604.34 210.63 604.34 210.63C597.75 210.63 594.09 210.63 593.36 210.63C593.36 210.63 593.36 210.63 593.36 210.63C593.36 204.51 593.36 201.1 593.36 200.42C593.36 200.42 593.36 200.42 593.36 200.42C599.95 200.42 603.6 200.42 604.34 200.42Z" id="b715NNcvYc"></path><path d="M602.62 231.06C602.62 231.06 602.62 231.06 602.62 231.06C602.62 237.19 602.62 240.59 602.62 241.27C602.62 241.27 602.62 241.27 602.62 241.27C534.13 241.27 496.08 241.27 488.47 241.27C488.47 241.27 488.47 241.27 488.47 241.27C488.47 235.14 488.47 231.74 488.47 231.06C488.47 231.06 488.47 231.06 488.47 231.06C556.96 231.06 595.01 231.06 602.62 231.06Z" id="c3hTbrX2Ei"></path><path d="M607.08 258.29C607.08 258.29 607.08 258.29 607.08 258.29C607.08 264.42 607.08 267.82 607.08 268.51C607.08 268.51 607.08 268.51 607.08 268.51C600.5 268.51 596.84 268.51 596.11 268.51C596.11 268.51 596.11 268.51 596.11 268.51C596.11 262.38 596.11 258.97 596.11 258.29C596.11 258.29 596.11 258.29 596.11 258.29C602.69 258.29 606.35 258.29 607.08 258.29Z" id="b1c1iMCQNO"></path><path d="M589.45 292.34C589.45 292.34 589.45 292.34 589.45 292.34C589.45 298.46 589.45 301.87 589.45 302.55C589.45 302.55 589.45 302.55 589.45 302.55C518.32 302.55 478.81 302.55 470.91 302.55C470.91 302.55 470.91 302.55 470.91 302.55C470.91 296.42 470.91 293.02 470.91 292.34C470.91 292.34 470.91 292.34 470.91 292.34C542.03 292.34 581.55 292.34 589.45 292.34Z" id="aNo76WMzC"></path><path d="M496.98 142.55C496.98 142.55 496.98 142.55 496.98 142.55C496.98 148.68 496.98 152.08 496.98 152.76C496.98 152.76 496.98 152.76 496.98 152.76C488.04 152.76 483.07 152.76 482.08 152.76C482.08 152.76 482.08 152.76 482.08 152.76C482.08 146.63 482.08 143.23 482.08 142.55C482.08 142.55 482.08 142.55 482.08 142.55C491.02 142.55 495.98 142.55 496.98 142.55Z" id="a6AhCC2IYu"></path><path d="M493.25 84.68C493.25 84.68 493.25 84.68 493.25 84.68C493.25 90.8 493.25 94.21 493.25 94.89C493.25 94.89 493.25 94.89 493.25 94.89C484.31 94.89 479.35 94.89 478.36 94.89C478.36 94.89 478.36 94.89 478.36 94.89C478.36 88.76 478.36 85.36 478.36 84.68C478.36 84.68 478.36 84.68 478.36 84.68C487.29 84.68 492.26 84.68 493.25 84.68Z" id="ozfHTkeYX"></path><path d="M596.04 50.63C596.04 50.63 596.04 50.63 596.04 50.63C596.04 56.76 596.04 60.16 596.04 60.85C596.04 60.85 596.04 60.85 596.04 60.85C524.91 60.85 485.4 60.85 477.49 60.85C477.49 60.85 477.49 60.85 477.49 60.85C477.49 54.72 477.49 51.31 477.49 50.63C477.49 50.63 477.49 50.63 477.49 50.63C548.62 50.63 588.13 50.63 596.04 50.63Z" id="e2IsmYDp57"></path><path d="M567.5 84.68C567.5 84.68 567.5 84.68 567.5 84.68C567.5 90.8 567.5 94.21 567.5 94.89C567.5 94.89 567.5 94.89 567.5 94.89C526.67 94.89 503.98 94.89 499.45 94.89C499.45 94.89 499.45 94.89 499.45 94.89C499.45 88.76 499.45 85.36 499.45 84.68C499.45 84.68 499.45 84.68 499.45 84.68C540.28 84.68 562.96 84.68 567.5 84.68Z" id="bjsIipV0V"></path><path d="M567.5 258.29C567.5 258.29 567.5 258.29 567.5 258.29C567.5 264.42 567.5 267.82 567.5 268.51C567.5 268.51 567.5 268.51 567.5 268.51C526.67 268.51 503.98 268.51 499.45 268.51C499.45 268.51 499.45 268.51 499.45 268.51C499.45 262.38 499.45 258.97 499.45 258.29C499.45 258.29 499.45 258.29 499.45 258.29C540.28 258.29 562.96 258.29 567.5 258.29Z" id="i9CDIjSMs"></path><path d="M269.74 249.78C269.74 291.18 249.7 324.68 225.05 324.68C200.39 324.68 180.36 291.18 180.36 249.78C180.36 208.39 200.39 174.89 225.05 174.89C249.7 174.89 269.74 208.39 269.74 249.78Z" id="l4fLqdz0Od"></path><path d="M269.74 100C269.74 141.39 249.7 174.89 225.05 174.89C200.39 174.89 180.36 141.39 180.36 99.99C180.36 58.6 200.39 25.1 225.05 25.1C249.7 25.1 269.74 58.6 269.74 100Z" id="aKsYgKE3"></path><path d="M257.97 249.78C257.97 208.39 243.21 174.89 225.05 174.89C244.25 174.89 397.88 174.89 417.08 174.89C435.24 174.89 450 208.39 450 249.78C450 291.18 435.24 324.68 417.08 324.68C404.28 324.68 340.27 324.68 225.05 324.68C246.99 302.34 257.97 277.38 257.97 249.78Z" id="bZp5d7tNu"></path><path d="M257.97 99.99C257.97 58.6 243.21 25.1 225.05 25.1C244.25 25.1 397.88 25.1 417.08 25.1C435.24 25.1 450 58.6 450 100C450 141.39 435.24 174.89 417.08 174.89C404.28 174.89 340.27 174.89 225.05 174.89C246.99 152.56 257.97 127.59 257.97 99.99Z" id="c2Wa1r1oK"></path><path d="M417.08 174.89C435.24 174.89 450 141.39 450 99.99C430.8 99.99 277.17 99.99 257.97 99.99C257.97 141.39 243.21 174.89 225.05 174.89C263.45 174.89 397.88 174.89 417.08 174.89Z" id="bagK5BvkJ"></path><path d="M417.08 324.68C435.24 324.68 450 291.18 450 249.78C430.8 249.78 277.17 249.78 257.97 249.78C257.97 291.18 243.21 324.68 225.05 324.68C263.45 324.68 397.88 324.68 417.08 324.68Z" id="d61JzmFVgP"></path><path d="M243.37 284.03C247.16 275.7 249.25 264.75 249.25 253.19C248.14 253.19 239.2 253.19 238.08 253.19C238.08 276.31 229.47 288.93 225.05 288.93C225.05 289.61 225.05 293.02 225.05 299.14C234.3 295.56 240.41 290.53 243.37 284.03Z" id="b9UNZLRsR"></path><path d="M212.01 263.4C212.01 263.4 212.01 263.4 212.01 263.4C212.01 271.57 212.01 276.11 212.01 277.02C212.01 277.02 212.01 277.02 212.01 277.02C205.31 277.02 201.59 277.02 200.84 277.02C200.84 277.02 200.84 277.02 200.84 277.02C200.84 268.85 200.84 264.31 200.84 263.4C200.84 263.4 200.84 263.4 200.84 263.4C207.54 263.4 211.27 263.4 212.01 263.4Z" id="a2SMySpmpI"></path><path d="M249.25 229.36C249.25 229.36 249.25 229.36 249.25 229.36C249.25 237.53 249.25 242.07 249.25 242.97C249.25 242.97 249.25 242.97 249.25 242.97C242.55 242.97 238.83 242.97 238.08 242.97C238.08 242.97 238.08 242.97 238.08 242.97C238.08 234.8 238.08 230.26 238.08 229.36C238.08 229.36 238.08 229.36 238.08 229.36C244.78 229.36 248.51 229.36 249.25 229.36Z" id="d5qBbffoRH"></path><path d="M414.34 200.42C414.34 200.42 414.34 200.42 414.34 200.42C414.34 206.55 414.34 209.95 414.34 210.63C414.34 210.63 414.34 210.63 414.34 210.63C407.75 210.63 404.1 210.63 403.36 210.63C403.36 210.63 403.36 210.63 403.36 210.63C403.36 204.51 403.36 201.1 403.36 200.42C403.36 200.42 403.36 200.42 403.36 200.42C409.95 200.42 413.61 200.42 414.34 200.42Z" id="aRkzcGKm"></path><path d="M412.62 231.06C412.62 231.06 412.62 231.06 412.62 231.06C412.62 237.19 412.62 240.59 412.62 241.27C412.62 241.27 412.62 241.27 412.62 241.27C344.13 241.27 306.08 241.27 298.47 241.27C298.47 241.27 298.47 241.27 298.47 241.27C298.47 235.14 298.47 231.74 298.47 231.06C298.47 231.06 298.47 231.06 298.47 231.06C366.96 231.06 405.01 231.06 412.62 231.06Z" id="c2dc6Yoh3D"></path><path d="M417.08 258.29C417.08 258.29 417.08 258.29 417.08 258.29C417.08 264.42 417.08 267.82 417.08 268.51C417.08 268.51 417.08 268.51 417.08 268.51C410.5 268.51 406.84 268.51 406.11 268.51C406.11 268.51 406.11 268.51 406.11 268.51C406.11 262.38 406.11 258.97 406.11 258.29C406.11 258.29 406.11 258.29 406.11 258.29C412.69 258.29 416.35 258.29 417.08 258.29Z" id="a18BfCqqjt"></path><path d="M206.73 72.56C202.93 80.89 200.84 91.84 200.84 103.4C201.96 103.4 210.9 103.4 212.01 103.4C212.01 80.27 220.62 67.65 225.05 67.65C225.05 66.97 225.05 63.57 225.05 57.44C215.79 61.02 209.69 66.06 206.73 72.56Z" id="b3Ssfpz9"></path><path d="M399.45 292.34C399.45 292.34 399.45 292.34 399.45 292.34C399.45 298.46 399.45 301.87 399.45 302.55C399.45 302.55 399.45 302.55 399.45 302.55C328.33 302.55 288.81 302.55 280.91 302.55C280.91 302.55 280.91 302.55 280.91 302.55C280.91 296.42 280.91 293.02 280.91 292.34C280.91 292.34 280.91 292.34 280.91 292.34C352.03 292.34 391.55 292.34 399.45 292.34Z" id="a1F8podEdG"></path><path d="M238.08 103.4C238.08 126.53 229.47 139.14 225.05 139.14C225.05 140.17 225.05 148.34 225.05 149.36C232.42 149.36 238.93 143.99 243.37 134.24C247.16 125.91 249.25 114.96 249.25 103.4C247.02 103.4 239.2 103.4 238.08 103.4Z" id="a182JWk6LP"></path><path d="M212.01 113.61C212.01 113.61 212.01 113.61 212.01 113.61C212.01 121.78 212.01 126.32 212.01 127.23C212.01 127.23 212.01 127.23 212.01 127.23C205.31 127.23 201.59 127.23 200.84 127.23C200.84 127.23 200.84 127.23 200.84 127.23C200.84 119.06 200.84 114.52 200.84 113.61C200.84 113.61 200.84 113.61 200.84 113.61C207.54 113.61 211.27 113.61 212.01 113.61Z" id="ax2CHrYw"></path><path d="M249.25 79.57C249.25 79.57 249.25 79.57 249.25 79.57C249.25 87.74 249.25 92.28 249.25 93.19C249.25 93.19 249.25 93.19 249.25 93.19C242.55 93.19 238.83 93.19 238.08 93.19C238.08 93.19 238.08 93.19 238.08 93.19C238.08 85.02 238.08 80.48 238.08 79.57C238.08 79.57 238.08 79.57 238.08 79.57C244.78 79.57 248.51 79.57 249.25 79.57Z" id="a2WgZUosVP"></path><path d="M306.98 142.55C306.98 142.55 306.98 142.55 306.98 142.55C306.98 148.68 306.98 152.08 306.98 152.76C306.98 152.76 306.98 152.76 306.98 152.76C298.04 152.76 293.07 152.76 292.08 152.76C292.08 152.76 292.08 152.76 292.08 152.76C292.08 146.63 292.08 143.23 292.08 142.55C292.08 142.55 292.08 142.55 292.08 142.55C301.02 142.55 305.98 142.55 306.98 142.55Z" id="cMmgBSMe"></path><path d="M303.25 84.68C303.25 84.68 303.25 84.68 303.25 84.68C303.25 90.8 303.25 94.21 303.25 94.89C303.25 94.89 303.25 94.89 303.25 94.89C294.31 94.89 289.35 94.89 288.36 94.89C288.36 94.89 288.36 94.89 288.36 94.89C288.36 88.76 288.36 85.36 288.36 84.68C288.36 84.68 288.36 84.68 288.36 84.68C297.29 84.68 302.26 84.68 303.25 84.68Z" id="j2mGpYAXZ8"></path><path d="M406.04 50.63C406.04 50.63 406.04 50.63 406.04 50.63C406.04 56.76 406.04 60.16 406.04 60.85C406.04 60.85 406.04 60.85 406.04 60.85C334.91 60.85 295.4 60.85 287.49 60.85C287.49 60.85 287.49 60.85 287.49 60.85C287.49 54.72 287.49 51.31 287.49 50.63C287.49 50.63 287.49 50.63 287.49 50.63C358.62 50.63 398.13 50.63 406.04 50.63Z" id="c2JHHRgNI7"></path><path d="M377.5 84.68C377.5 84.68 377.5 84.68 377.5 84.68C377.5 90.8 377.5 94.21 377.5 94.89C377.5 94.89 377.5 94.89 377.5 94.89C336.67 94.89 313.98 94.89 309.45 94.89C309.45 94.89 309.45 94.89 309.45 94.89C309.45 88.76 309.45 85.36 309.45 84.68C309.45 84.68 309.45 84.68 309.45 84.68C350.28 84.68 372.96 84.68 377.5 84.68Z" id="a3S5rV8Jmo"></path><path d="M377.5 258.29C377.5 258.29 377.5 258.29 377.5 258.29C377.5 264.42 377.5 267.82 377.5 268.51C377.5 268.51 377.5 268.51 377.5 268.51C336.67 268.51 313.98 268.51 309.45 268.51C309.45 268.51 309.45 268.51 309.45 268.51C309.45 262.38 309.45 258.97 309.45 258.29C309.45 258.29 309.45 258.29 309.45 258.29C350.28 258.29 372.96 258.29 377.5 258.29Z" id="dYFOjmJHY"></path><path d="M81.7 249.78C81.7 291.18 63.39 324.68 40.85 324.68C18.32 324.68 0 291.18 0 249.78C0 208.39 18.31 174.89 40.85 174.89C63.39 174.89 81.7 208.39 81.7 249.78Z" id="b9bgSuNKT"></path><path d="M81.7 100C81.7 141.39 63.39 174.89 40.85 174.89C18.32 174.89 0 141.39 0 99.99C0 58.6 18.31 25.1 40.85 25.1C63.39 25.1 81.7 58.6 81.7 100Z" id="f3xrRCdNKS"></path><path d="M73.77 249.78C73.77 208.39 59.01 174.89 40.85 174.89C60.05 174.89 213.68 174.89 232.88 174.89C251.05 174.89 265.8 208.39 265.8 249.78C265.8 291.18 251.05 324.68 232.88 324.68C220.08 324.68 156.07 324.68 40.85 324.68C62.8 302.34 73.77 277.38 73.77 249.78Z" id="bkqhezikn"></path><path d="M73.77 99.99C73.77 58.6 59.01 25.1 40.85 25.1C60.05 25.1 213.68 25.1 232.88 25.1C251.05 25.1 265.8 58.6 265.8 100C265.8 141.39 251.05 174.89 232.88 174.89C220.08 174.89 156.07 174.89 40.85 174.89C62.8 152.56 73.77 127.59 73.77 99.99Z" id="bnTV1rTNx"></path><path d="M232.88 174.89C251.05 174.89 265.8 141.39 265.8 99.99C246.6 99.99 92.97 99.99 73.77 99.99C73.77 141.39 59.01 174.89 40.85 174.89C79.26 174.89 213.68 174.89 232.88 174.89Z" id="a1cJv9Uz2l"></path><path d="M232.88 324.68C251.05 324.68 265.8 291.18 265.8 249.78C246.6 249.78 92.97 249.78 73.77 249.78C73.77 291.18 59.01 324.68 40.85 324.68C79.26 324.68 213.68 324.68 232.88 324.68Z" id="aTaGEofJy"></path><path d="M57.6 284.03C61.07 275.7 62.98 264.75 62.98 253.19C61.96 253.19 53.79 253.19 52.77 253.19C52.77 276.31 44.89 288.93 40.85 288.93C40.85 289.61 40.85 293.02 40.85 299.14C49.31 295.56 54.89 290.53 57.6 284.03Z" id="b30y7jBdAw"></path><path d="M28.94 263.4C28.94 263.4 28.94 263.4 28.94 263.4C28.94 271.57 28.94 276.11 28.94 277.02C28.94 277.02 28.94 277.02 28.94 277.02C22.81 277.02 19.4 277.02 18.72 277.02C18.72 277.02 18.72 277.02 18.72 277.02C18.72 268.85 18.72 264.31 18.72 263.4C18.72 263.4 18.72 263.4 18.72 263.4C24.85 263.4 28.25 263.4 28.94 263.4Z" id="b19kOB64Vh"></path><path d="M62.98 229.36C62.98 229.36 62.98 229.36 62.98 229.36C62.98 237.53 62.98 242.07 62.98 242.97C62.98 242.97 62.98 242.97 62.98 242.97C56.85 242.97 53.45 242.97 52.77 242.97C52.77 242.97 52.77 242.97 52.77 242.97C52.77 234.8 52.77 230.26 52.77 229.36C52.77 229.36 52.77 229.36 52.77 229.36C58.89 229.36 62.3 229.36 62.98 229.36Z" id="b1f8Uk7HdJ"></path><path d="M230.14 200.42C230.14 200.42 230.14 200.42 230.14 200.42C230.14 206.55 230.14 209.95 230.14 210.63C230.14 210.63 230.14 210.63 230.14 210.63C223.56 210.63 219.9 210.63 219.17 210.63C219.17 210.63 219.17 210.63 219.17 210.63C219.17 204.51 219.17 201.1 219.17 200.42C219.17 200.42 219.17 200.42 219.17 200.42C225.75 200.42 229.41 200.42 230.14 200.42Z" id="f7vahP34r"></path><path d="M228.43 231.06C228.43 231.06 228.43 231.06 228.43 231.06C228.43 237.19 228.43 240.59 228.43 241.27C228.43 241.27 228.43 241.27 228.43 241.27C159.93 241.27 121.88 241.27 114.27 241.27C114.27 241.27 114.27 241.27 114.27 241.27C114.27 235.14 114.27 231.74 114.27 231.06C114.27 231.06 114.27 231.06 114.27 231.06C182.77 231.06 220.82 231.06 228.43 231.06Z" id="frOXdsYoy"></path><path d="M232.88 258.29C232.88 258.29 232.88 258.29 232.88 258.29C232.88 264.42 232.88 267.82 232.88 268.51C232.88 268.51 232.88 268.51 232.88 268.51C226.3 268.51 222.64 268.51 221.91 268.51C221.91 268.51 221.91 268.51 221.91 268.51C221.91 262.38 221.91 258.97 221.91 258.29C221.91 258.29 221.91 258.29 221.91 258.29C228.49 258.29 232.15 258.29 232.88 258.29Z" id="dgckUzxRq"></path><path d="M24.1 72.56C20.63 80.89 18.72 91.84 18.72 103.4C19.74 103.4 27.91 103.4 28.94 103.4C28.94 80.27 36.81 67.65 40.85 67.65C40.85 66.97 40.85 63.57 40.85 57.44C32.39 61.02 26.81 66.06 24.1 72.56Z" id="c9QPTjWlU"></path><path d="M215.26 292.34C215.26 292.34 215.26 292.34 215.26 292.34C215.26 298.46 215.26 301.87 215.26 302.55C215.26 302.55 215.26 302.55 215.26 302.55C144.13 302.55 104.61 302.55 96.71 302.55C96.71 302.55 96.71 302.55 96.71 302.55C96.71 296.42 96.71 293.02 96.71 292.34C96.71 292.34 96.71 292.34 96.71 292.34C167.84 292.34 207.35 292.34 215.26 292.34Z" id="c3RVPFeQQL"></path><path d="M52.77 103.4C52.77 126.53 44.89 139.14 40.85 139.14C40.85 140.17 40.85 148.34 40.85 149.36C47.59 149.36 53.54 143.99 57.6 134.24C61.07 125.91 62.98 114.96 62.98 103.4C60.94 103.4 53.79 103.4 52.77 103.4Z" id="a16GPy3nT7"></path><path d="M28.94 113.61C28.94 113.61 28.94 113.61 28.94 113.61C28.94 121.78 28.94 126.32 28.94 127.23C28.94 127.23 28.94 127.23 28.94 127.23C22.81 127.23 19.4 127.23 18.72 127.23C18.72 127.23 18.72 127.23 18.72 127.23C18.72 119.06 18.72 114.52 18.72 113.61C18.72 113.61 18.72 113.61 18.72 113.61C24.85 113.61 28.25 113.61 28.94 113.61Z" id="hSL33BgB"></path><path d="M62.98 79.57C62.98 79.57 62.98 79.57 62.98 79.57C62.98 87.74 62.98 92.28 62.98 93.19C62.98 93.19 62.98 93.19 62.98 93.19C56.85 93.19 53.45 93.19 52.77 93.19C52.77 93.19 52.77 93.19 52.77 93.19C52.77 85.02 52.77 80.48 52.77 79.57C52.77 79.57 52.77 79.57 52.77 79.57C58.89 79.57 62.3 79.57 62.98 79.57Z" id="b1i11uhTFw"></path><path d="M115.74 142.55C115.74 142.55 115.74 142.55 115.74 142.55C115.74 148.68 115.74 152.08 115.74 152.76C115.74 152.76 115.74 152.76 115.74 152.76C107.57 152.76 103.04 152.76 102.13 152.76C102.13 152.76 102.13 152.76 102.13 152.76C102.13 146.63 102.13 143.23 102.13 142.55C102.13 142.55 102.13 142.55 102.13 142.55C110.3 142.55 114.84 142.55 115.74 142.55Z" id="dD6P9YIf6"></path><path d="M112.34 84.68C112.34 84.68 112.34 84.68 112.34 84.68C112.34 90.8 112.34 94.21 112.34 94.89C112.34 94.89 112.34 94.89 112.34 94.89C104.17 94.89 99.63 94.89 98.72 94.89C98.72 94.89 98.72 94.89 98.72 94.89C98.72 88.76 98.72 85.36 98.72 84.68C98.72 84.68 98.72 84.68 98.72 84.68C106.89 84.68 111.43 84.68 112.34 84.68Z" id="d3P3NpbRg6"></path><path d="M221.84 50.63C221.84 50.63 221.84 50.63 221.84 50.63C221.84 56.76 221.84 60.16 221.84 60.85C221.84 60.85 221.84 60.85 221.84 60.85C150.71 60.85 111.2 60.85 103.3 60.85C103.3 60.85 103.3 60.85 103.3 60.85C103.3 54.72 103.3 51.31 103.3 50.63C103.3 50.63 103.3 50.63 103.3 50.63C174.42 50.63 213.94 50.63 221.84 50.63Z" id="bVhLu35te"></path><path d="M193.3 84.68C193.3 84.68 193.3 84.68 193.3 84.68C193.3 90.8 193.3 94.21 193.3 94.89C193.3 94.89 193.3 94.89 193.3 94.89C152.47 94.89 129.79 94.89 125.25 94.89C125.25 94.89 125.25 94.89 125.25 94.89C125.25 88.76 125.25 85.36 125.25 84.68C125.25 84.68 125.25 84.68 125.25 84.68C166.08 84.68 188.77 84.68 193.3 84.68Z" id="b3QSOg6wuc"></path><path d="M193.3 258.29C193.3 258.29 193.3 258.29 193.3 258.29C193.3 264.42 193.3 267.82 193.3 268.51C193.3 268.51 193.3 268.51 193.3 268.51C152.47 268.51 129.79 268.51 125.25 268.51C125.25 268.51 125.25 268.51 125.25 268.51C125.25 262.38 125.25 258.97 125.25 258.29C125.25 258.29 125.25 258.29 125.25 258.29C166.08 258.29 188.77 258.29 193.3 258.29Z" id="b221nO5Akb"></path><path d="M459.73 549.36C459.73 590.75 439.7 624.25 415.05 624.25C390.39 624.25 370.36 590.75 370.36 549.36C370.36 507.96 390.39 474.46 415.05 474.46C439.7 474.46 459.73 507.96 459.73 549.36Z" id="b1M0bjhP5b"></path><path d="M459.73 399.57C459.73 440.97 439.7 474.46 415.05 474.46C390.39 474.46 370.36 440.96 370.36 399.57C370.36 358.17 390.39 324.68 415.05 324.68C439.7 324.68 459.73 358.17 459.73 399.57Z" id="b12jdPMjKp"></path><path d="M447.97 549.36C447.97 507.96 433.21 474.46 415.05 474.46C434.25 474.46 587.88 474.46 607.08 474.46C625.24 474.46 640 507.96 640 549.36C640 590.75 625.24 624.25 607.08 624.25C594.28 624.25 530.27 624.25 415.05 624.25C436.99 601.92 447.97 576.95 447.97 549.36Z" id="a1na4r338h"></path><path d="M447.97 399.57C447.97 358.17 433.21 324.68 415.05 324.68C434.25 324.68 587.88 324.68 607.08 324.68C625.24 324.68 640 358.17 640 399.57C640 440.97 625.24 474.46 607.08 474.46C594.28 474.46 530.27 474.46 415.05 474.46C436.99 452.13 447.97 427.17 447.97 399.57Z" id="b5Y3Eaq6kA"></path><path d="M607.08 474.46C625.24 474.46 640 440.96 640 399.57C620.8 399.57 467.17 399.57 447.97 399.57C447.97 440.96 433.21 474.46 415.05 474.46C453.45 474.46 587.88 474.46 607.08 474.46Z" id="k2Khc0yCgu"></path><path d="M607.08 624.25C625.24 624.25 640 590.75 640 549.36C620.8 549.36 467.17 549.36 447.97 549.36C447.97 590.75 433.21 624.25 415.05 624.25C453.45 624.25 587.88 624.25 607.08 624.25Z" id="beypuzwWT"></path><path d="M604.34 499.99C604.34 499.99 604.34 499.99 604.34 499.99C604.34 506.12 604.34 509.53 604.34 510.21C604.34 510.21 604.34 510.21 604.34 510.21C597.75 510.21 594.09 510.21 593.36 510.21C593.36 510.21 593.36 510.21 593.36 510.21C593.36 504.08 593.36 500.68 593.36 499.99C593.36 499.99 593.36 499.99 593.36 499.99C599.95 499.99 603.6 499.99 604.34 499.99Z" id="b1SuILx4N"></path><path d="M602.62 530.63C602.62 530.63 602.62 530.63 602.62 530.63C602.62 536.76 602.62 540.16 602.62 540.85C602.62 540.85 602.62 540.85 602.62 540.85C534.13 540.85 496.08 540.85 488.47 540.85C488.47 540.85 488.47 540.85 488.47 540.85C488.47 534.72 488.47 531.31 488.47 530.63C488.47 530.63 488.47 530.63 488.47 530.63C556.96 530.63 595.01 530.63 602.62 530.63Z" id="a55Um3Ef8Q"></path><path d="M607.08 557.87C607.08 557.87 607.08 557.87 607.08 557.87C607.08 563.99 607.08 567.4 607.08 568.08C607.08 568.08 607.08 568.08 607.08 568.08C600.5 568.08 596.84 568.08 596.11 568.08C596.11 568.08 596.11 568.08 596.11 568.08C596.11 561.95 596.11 558.55 596.11 557.87C596.11 557.87 596.11 557.87 596.11 557.87C602.69 557.87 606.35 557.87 607.08 557.87Z" id="c1SgZ8AT8"></path><path d="M589.45 591.91C589.45 591.91 589.45 591.91 589.45 591.91C589.45 598.04 589.45 601.44 589.45 602.12C589.45 602.12 589.45 602.12 589.45 602.12C518.32 602.12 478.81 602.12 470.91 602.12C470.91 602.12 470.91 602.12 470.91 602.12C470.91 595.99 470.91 592.59 470.91 591.91C470.91 591.91 470.91 591.91 470.91 591.91C542.03 591.91 581.55 591.91 589.45 591.91Z" id="c1HQ0uA1Sp"></path><path d="M496.98 442.12C496.98 442.12 496.98 442.12 496.98 442.12C496.98 448.25 496.98 451.65 496.98 452.33C496.98 452.33 496.98 452.33 496.98 452.33C488.04 452.33 483.07 452.33 482.08 452.33C482.08 452.33 482.08 452.33 482.08 452.33C482.08 446.21 482.08 442.8 482.08 442.12C482.08 442.12 482.08 442.12 482.08 442.12C491.02 442.12 495.98 442.12 496.98 442.12Z" id="a6W6i8OJvi"></path><path d="M493.25 384.25C493.25 384.25 493.25 384.25 493.25 384.25C493.25 390.38 493.25 393.78 493.25 394.46C493.25 394.46 493.25 394.46 493.25 394.46C484.31 394.46 479.35 394.46 478.36 394.46C478.36 394.46 478.36 394.46 478.36 394.46C478.36 388.33 478.36 384.93 478.36 384.25C478.36 384.25 478.36 384.25 478.36 384.25C487.29 384.25 492.26 384.25 493.25 384.25Z" id="a1GvXoV2vZ"></path><path d="M596.04 350.21C596.04 350.21 596.04 350.21 596.04 350.21C596.04 356.33 596.04 359.74 596.04 360.42C596.04 360.42 596.04 360.42 596.04 360.42C524.91 360.42 485.4 360.42 477.49 360.42C477.49 360.42 477.49 360.42 477.49 360.42C477.49 354.29 477.49 350.89 477.49 350.21C477.49 350.21 477.49 350.21 477.49 350.21C548.62 350.21 588.13 350.21 596.04 350.21Z" id="d5zr5Rr1N"></path><path d="M567.5 384.25C567.5 384.25 567.5 384.25 567.5 384.25C567.5 390.38 567.5 393.78 567.5 394.46C567.5 394.46 567.5 394.46 567.5 394.46C526.67 394.46 503.98 394.46 499.45 394.46C499.45 394.46 499.45 394.46 499.45 394.46C499.45 388.33 499.45 384.93 499.45 384.25C499.45 384.25 499.45 384.25 499.45 384.25C540.28 384.25 562.96 384.25 567.5 384.25Z" id="ad12J5cZX"></path><path d="M567.5 557.87C567.5 557.87 567.5 557.87 567.5 557.87C567.5 563.99 567.5 567.4 567.5 568.08C567.5 568.08 567.5 568.08 567.5 568.08C526.67 568.08 503.98 568.08 499.45 568.08C499.45 568.08 499.45 568.08 499.45 568.08C499.45 561.95 499.45 558.55 499.45 557.87C499.45 557.87 499.45 557.87 499.45 557.87C540.28 557.87 562.96 557.87 567.5 557.87Z" id="bQXewnYkB"></path><path d="M269.74 549.36C269.74 590.75 249.7 624.25 225.05 624.25C200.39 624.25 180.36 590.75 180.36 549.36C180.36 507.96 200.39 474.46 225.05 474.46C249.7 474.46 269.74 507.96 269.74 549.36Z" id="bjubQ2VsY"></path><path d="M269.74 399.57C269.74 440.97 249.7 474.46 225.05 474.46C200.39 474.46 180.36 440.96 180.36 399.57C180.36 358.17 200.39 324.68 225.05 324.68C249.7 324.68 269.74 358.17 269.74 399.57Z" id="h1swS6yjV"></path><path d="M257.97 549.36C257.97 507.96 243.21 474.46 225.05 474.46C244.25 474.46 397.88 474.46 417.08 474.46C435.24 474.46 450 507.96 450 549.36C450 590.75 435.24 624.25 417.08 624.25C404.28 624.25 340.27 624.25 225.05 624.25C246.99 601.92 257.97 576.95 257.97 549.36Z" id="a19hxNhz93"></path><path d="M257.97 399.57C257.97 358.17 243.21 324.68 225.05 324.68C244.25 324.68 397.88 324.68 417.08 324.68C435.24 324.68 450 358.17 450 399.57C450 440.97 435.24 474.46 417.08 474.46C404.28 474.46 340.27 474.46 225.05 474.46C246.99 452.13 257.97 427.17 257.97 399.57Z" id="gcaHs2zhR"></path><path d="M417.08 474.46C435.24 474.46 450 440.96 450 399.57C430.8 399.57 277.17 399.57 257.97 399.57C257.97 440.96 243.21 474.46 225.05 474.46C263.45 474.46 397.88 474.46 417.08 474.46Z" id="c1z29yHpfl"></path><path d="M417.08 624.25C435.24 624.25 450 590.75 450 549.36C430.8 549.36 277.17 549.36 257.97 549.36C257.97 590.75 243.21 624.25 225.05 624.25C263.45 624.25 397.88 624.25 417.08 624.25Z" id="d2uPf500Yr"></path><path d="M243.37 583.6C247.16 575.27 249.25 564.32 249.25 552.76C248.14 552.76 239.2 552.76 238.08 552.76C238.08 575.89 229.47 588.51 225.05 588.51C225.05 589.19 225.05 592.59 225.05 598.72C234.3 595.14 240.41 590.1 243.37 583.6Z" id="b3tLQJcW5G"></path><path d="M212.01 562.97C212.01 562.97 212.01 562.97 212.01 562.97C212.01 571.14 212.01 575.68 212.01 576.59C212.01 576.59 212.01 576.59 212.01 576.59C205.31 576.59 201.59 576.59 200.84 576.59C200.84 576.59 200.84 576.59 200.84 576.59C200.84 568.42 200.84 563.88 200.84 562.97C200.84 562.97 200.84 562.97 200.84 562.97C207.54 562.97 211.27 562.97 212.01 562.97Z" id="baKNydihl"></path><path d="M249.25 528.93C249.25 528.93 249.25 528.93 249.25 528.93C249.25 537.1 249.25 541.64 249.25 542.55C249.25 542.55 249.25 542.55 249.25 542.55C242.55 542.55 238.83 542.55 238.08 542.55C238.08 542.55 238.08 542.55 238.08 542.55C238.08 534.38 238.08 529.84 238.08 528.93C238.08 528.93 238.08 528.93 238.08 528.93C244.78 528.93 248.51 528.93 249.25 528.93Z" id="cJmWG8fDf"></path><path d="M414.34 499.99C414.34 499.99 414.34 499.99 414.34 499.99C414.34 506.12 414.34 509.53 414.34 510.21C414.34 510.21 414.34 510.21 414.34 510.21C407.75 510.21 404.1 510.21 403.36 510.21C403.36 510.21 403.36 510.21 403.36 510.21C403.36 504.08 403.36 500.68 403.36 499.99C403.36 499.99 403.36 499.99 403.36 499.99C409.95 499.99 413.61 499.99 414.34 499.99Z" id="bEWlPVMZT"></path><path d="M412.62 530.63C412.62 530.63 412.62 530.63 412.62 530.63C412.62 536.76 412.62 540.16 412.62 540.85C412.62 540.85 412.62 540.85 412.62 540.85C344.13 540.85 306.08 540.85 298.47 540.85C298.47 540.85 298.47 540.85 298.47 540.85C298.47 534.72 298.47 531.31 298.47 530.63C298.47 530.63 298.47 530.63 298.47 530.63C366.96 530.63 405.01 530.63 412.62 530.63Z" id="a5li7MN2K"></path><path d="M417.08 557.87C417.08 557.87 417.08 557.87 417.08 557.87C417.08 563.99 417.08 567.4 417.08 568.08C417.08 568.08 417.08 568.08 417.08 568.08C410.5 568.08 406.84 568.08 406.11 568.08C406.11 568.08 406.11 568.08 406.11 568.08C406.11 561.95 406.11 558.55 406.11 557.87C406.11 557.87 406.11 557.87 406.11 557.87C412.69 557.87 416.35 557.87 417.08 557.87Z" id="a3NNeawffB"></path><path d="M206.73 372.13C202.93 380.46 200.84 391.41 200.84 402.97C201.96 402.97 210.9 402.97 212.01 402.97C212.01 379.84 220.62 367.23 225.05 367.23C225.05 366.55 225.05 363.14 225.05 357.02C215.79 360.6 209.69 365.63 206.73 372.13Z" id="d5D5XEtfr"></path><path d="M399.45 591.91C399.45 591.91 399.45 591.91 399.45 591.91C399.45 598.04 399.45 601.44 399.45 602.12C399.45 602.12 399.45 602.12 399.45 602.12C328.33 602.12 288.81 602.12 280.91 602.12C280.91 602.12 280.91 602.12 280.91 602.12C280.91 595.99 280.91 592.59 280.91 591.91C280.91 591.91 280.91 591.91 280.91 591.91C352.03 591.91 391.55 591.91 399.45 591.91Z" id="c1tI5T4S2e"></path><path d="M238.08 402.97C238.08 426.1 229.47 438.72 225.05 438.72C225.05 439.74 225.05 447.91 225.05 448.93C232.42 448.93 238.93 443.56 243.37 433.81C247.16 425.48 249.25 414.53 249.25 402.97C247.02 402.97 239.2 402.97 238.08 402.97Z" id="b6ddt8Rnp"></path><path d="M212.01 413.19C212.01 413.19 212.01 413.19 212.01 413.19C212.01 421.36 212.01 425.89 212.01 426.8C212.01 426.8 212.01 426.8 212.01 426.8C205.31 426.8 201.59 426.8 200.84 426.8C200.84 426.8 200.84 426.8 200.84 426.8C200.84 418.63 200.84 414.09 200.84 413.19C200.84 413.19 200.84 413.19 200.84 413.19C207.54 413.19 211.27 413.19 212.01 413.19Z" id="a2RFVqeoF"></path><path d="M249.25 379.14C249.25 379.14 249.25 379.14 249.25 379.14C249.25 387.31 249.25 391.85 249.25 392.76C249.25 392.76 249.25 392.76 249.25 392.76C242.55 392.76 238.83 392.76 238.08 392.76C238.08 392.76 238.08 392.76 238.08 392.76C238.08 384.59 238.08 380.05 238.08 379.14C238.08 379.14 238.08 379.14 238.08 379.14C244.78 379.14 248.51 379.14 249.25 379.14Z" id="c8SR4yqrD"></path><path d="M306.98 442.12C306.98 442.12 306.98 442.12 306.98 442.12C306.98 448.25 306.98 451.65 306.98 452.33C306.98 452.33 306.98 452.33 306.98 452.33C298.04 452.33 293.07 452.33 292.08 452.33C292.08 452.33 292.08 452.33 292.08 452.33C292.08 446.21 292.08 442.8 292.08 442.12C292.08 442.12 292.08 442.12 292.08 442.12C301.02 442.12 305.98 442.12 306.98 442.12Z" id="g18jmxWuaH"></path><path d="M303.25 384.25C303.25 384.25 303.25 384.25 303.25 384.25C303.25 390.38 303.25 393.78 303.25 394.46C303.25 394.46 303.25 394.46 303.25 394.46C294.31 394.46 289.35 394.46 288.36 394.46C288.36 394.46 288.36 394.46 288.36 394.46C288.36 388.33 288.36 384.93 288.36 384.25C288.36 384.25 288.36 384.25 288.36 384.25C297.29 384.25 302.26 384.25 303.25 384.25Z" id="a1I0ffbJ9M"></path><path d="M406.04 350.21C406.04 350.21 406.04 350.21 406.04 350.21C406.04 356.33 406.04 359.74 406.04 360.42C406.04 360.42 406.04 360.42 406.04 360.42C334.91 360.42 295.4 360.42 287.49 360.42C287.49 360.42 287.49 360.42 287.49 360.42C287.49 354.29 287.49 350.89 287.49 350.21C287.49 350.21 287.49 350.21 287.49 350.21C358.62 350.21 398.13 350.21 406.04 350.21Z" id="d31SJeZh6n"></path><path d="M377.5 384.25C377.5 384.25 377.5 384.25 377.5 384.25C377.5 390.38 377.5 393.78 377.5 394.46C377.5 394.46 377.5 394.46 377.5 394.46C336.67 394.46 313.98 394.46 309.45 394.46C309.45 394.46 309.45 394.46 309.45 394.46C309.45 388.33 309.45 384.93 309.45 384.25C309.45 384.25 309.45 384.25 309.45 384.25C350.28 384.25 372.96 384.25 377.5 384.25Z" id="a1SlHxsbER"></path><path d="M377.5 557.87C377.5 557.87 377.5 557.87 377.5 557.87C377.5 563.99 377.5 567.4 377.5 568.08C377.5 568.08 377.5 568.08 377.5 568.08C336.67 568.08 313.98 568.08 309.45 568.08C309.45 568.08 309.45 568.08 309.45 568.08C309.45 561.95 309.45 558.55 309.45 557.87C309.45 557.87 309.45 557.87 309.45 557.87C350.28 557.87 372.96 557.87 377.5 557.87Z" id="b3i1afEfCL"></path><path d="M81.7 549.36C81.7 590.75 63.39 624.25 40.85 624.25C18.32 624.25 0 590.75 0 549.36C0 507.96 18.31 474.46 40.85 474.46C63.39 474.46 81.7 507.96 81.7 549.36Z" id="aTytZwFZ8"></path><path d="M81.7 399.57C81.7 440.97 63.39 474.46 40.85 474.46C18.32 474.46 0 440.96 0 399.57C0 358.17 18.31 324.68 40.85 324.68C63.39 324.68 81.7 358.17 81.7 399.57Z" id="a3k8mZETIe"></path><path d="M73.77 549.36C73.77 507.96 59.01 474.46 40.85 474.46C60.05 474.46 213.68 474.46 232.88 474.46C251.05 474.46 265.8 507.96 265.8 549.36C265.8 590.75 251.05 624.25 232.88 624.25C220.08 624.25 156.07 624.25 40.85 624.25C62.8 601.92 73.77 576.95 73.77 549.36Z" id="bdQEzvLf5"></path><path d="M73.77 399.57C73.77 358.17 59.01 324.68 40.85 324.68C60.05 324.68 213.68 324.68 232.88 324.68C251.05 324.68 265.8 358.17 265.8 399.57C265.8 440.97 251.05 474.46 232.88 474.46C220.08 474.46 156.07 474.46 40.85 474.46C62.8 452.13 73.77 427.17 73.77 399.57Z" id="czM2XkhNo"></path><path d="M232.88 474.46C251.05 474.46 265.8 440.96 265.8 399.57C246.6 399.57 92.97 399.57 73.77 399.57C73.77 440.96 59.01 474.46 40.85 474.46C79.26 474.46 213.68 474.46 232.88 474.46Z" id="a4aWxZnM7A"></path><path d="M232.88 624.25C251.05 624.25 265.8 590.75 265.8 549.36C246.6 549.36 92.97 549.36 73.77 549.36C73.77 590.75 59.01 624.25 40.85 624.25C79.26 624.25 213.68 624.25 232.88 624.25Z" id="b3TmvFsWzX"></path><path d="M57.6 583.6C61.07 575.27 62.98 564.32 62.98 552.76C61.96 552.76 53.79 552.76 52.77 552.76C52.77 575.89 44.89 588.51 40.85 588.51C40.85 589.19 40.85 592.59 40.85 598.72C49.31 595.14 54.89 590.1 57.6 583.6Z" id="b5bqrDLek3"></path><path d="M28.94 562.97C28.94 562.97 28.94 562.97 28.94 562.97C28.94 571.14 28.94 575.68 28.94 576.59C28.94 576.59 28.94 576.59 28.94 576.59C22.81 576.59 19.4 576.59 18.72 576.59C18.72 576.59 18.72 576.59 18.72 576.59C18.72 568.42 18.72 563.88 18.72 562.97C18.72 562.97 18.72 562.97 18.72 562.97C24.85 562.97 28.25 562.97 28.94 562.97Z" id="d13ZBIzLUe"></path><path d="M62.98 528.93C62.98 528.93 62.98 528.93 62.98 528.93C62.98 537.1 62.98 541.64 62.98 542.55C62.98 542.55 62.98 542.55 62.98 542.55C56.85 542.55 53.45 542.55 52.77 542.55C52.77 542.55 52.77 542.55 52.77 542.55C52.77 534.38 52.77 529.84 52.77 528.93C52.77 528.93 52.77 528.93 52.77 528.93C58.89 528.93 62.3 528.93 62.98 528.93Z" id="ehc5pnl8c"></path><path d="M230.14 499.99C230.14 499.99 230.14 499.99 230.14 499.99C230.14 506.12 230.14 509.53 230.14 510.21C230.14 510.21 230.14 510.21 230.14 510.21C223.56 510.21 219.9 510.21 219.17 510.21C219.17 510.21 219.17 510.21 219.17 510.21C219.17 504.08 219.17 500.68 219.17 499.99C219.17 499.99 219.17 499.99 219.17 499.99C225.75 499.99 229.41 499.99 230.14 499.99Z" id="apEKFktm8"></path><path d="M228.43 530.63C228.43 530.63 228.43 530.63 228.43 530.63C228.43 536.76 228.43 540.16 228.43 540.85C228.43 540.85 228.43 540.85 228.43 540.85C159.93 540.85 121.88 540.85 114.27 540.85C114.27 540.85 114.27 540.85 114.27 540.85C114.27 534.72 114.27 531.31 114.27 530.63C114.27 530.63 114.27 530.63 114.27 530.63C182.77 530.63 220.82 530.63 228.43 530.63Z" id="b4op6BkUOF"></path><path d="M232.88 557.87C232.88 557.87 232.88 557.87 232.88 557.87C232.88 563.99 232.88 567.4 232.88 568.08C232.88 568.08 232.88 568.08 232.88 568.08C226.3 568.08 222.64 568.08 221.91 568.08C221.91 568.08 221.91 568.08 221.91 568.08C221.91 561.95 221.91 558.55 221.91 557.87C221.91 557.87 221.91 557.87 221.91 557.87C228.49 557.87 232.15 557.87 232.88 557.87Z" id="a3KrQx7WtK"></path><path d="M24.1 372.13C20.63 380.46 18.72 391.41 18.72 402.97C19.74 402.97 27.91 402.97 28.94 402.97C28.94 379.84 36.81 367.23 40.85 367.23C40.85 366.55 40.85 363.14 40.85 357.02C32.39 360.6 26.81 365.63 24.1 372.13Z" id="d3P4ThTXS"></path><path d="M215.26 591.91C215.26 591.91 215.26 591.91 215.26 591.91C215.26 598.04 215.26 601.44 215.26 602.12C215.26 602.12 215.26 602.12 215.26 602.12C144.13 602.12 104.61 602.12 96.71 602.12C96.71 602.12 96.71 602.12 96.71 602.12C96.71 595.99 96.71 592.59 96.71 591.91C96.71 591.91 96.71 591.91 96.71 591.91C167.84 591.91 207.35 591.91 215.26 591.91Z" id="a3bIx2TO0"></path><path d="M52.77 402.97C52.77 426.1 44.89 438.72 40.85 438.72C40.85 439.74 40.85 447.91 40.85 448.93C47.59 448.93 53.54 443.56 57.6 433.81C61.07 425.48 62.98 414.53 62.98 402.97C60.94 402.97 53.79 402.97 52.77 402.97Z" id="b16DUg3SEi"></path><path d="M28.94 413.19C28.94 413.19 28.94 413.19 28.94 413.19C28.94 421.36 28.94 425.89 28.94 426.8C28.94 426.8 28.94 426.8 28.94 426.8C22.81 426.8 19.4 426.8 18.72 426.8C18.72 426.8 18.72 426.8 18.72 426.8C18.72 418.63 18.72 414.09 18.72 413.19C18.72 413.19 18.72 413.19 18.72 413.19C24.85 413.19 28.25 413.19 28.94 413.19Z" id="aMYo5exiX"></path><path d="M62.98 379.14C62.98 379.14 62.98 379.14 62.98 379.14C62.98 387.31 62.98 391.85 62.98 392.76C62.98 392.76 62.98 392.76 62.98 392.76C56.85 392.76 53.45 392.76 52.77 392.76C52.77 392.76 52.77 392.76 52.77 392.76C52.77 384.59 52.77 380.05 52.77 379.14C52.77 379.14 52.77 379.14 52.77 379.14C58.89 379.14 62.3 379.14 62.98 379.14Z" id="arSBv0oq1"></path><path d="M115.74 442.12C115.74 442.12 115.74 442.12 115.74 442.12C115.74 448.25 115.74 451.65 115.74 452.33C115.74 452.33 115.74 452.33 115.74 452.33C107.57 452.33 103.04 452.33 102.13 452.33C102.13 452.33 102.13 452.33 102.13 452.33C102.13 446.21 102.13 442.8 102.13 442.12C102.13 442.12 102.13 442.12 102.13 442.12C110.3 442.12 114.84 442.12 115.74 442.12Z" id="c1SAN7gp7O"></path><path d="M112.34 384.25C112.34 384.25 112.34 384.25 112.34 384.25C112.34 390.38 112.34 393.78 112.34 394.46C112.34 394.46 112.34 394.46 112.34 394.46C104.17 394.46 99.63 394.46 98.72 394.46C98.72 394.46 98.72 394.46 98.72 394.46C98.72 388.33 98.72 384.93 98.72 384.25C98.72 384.25 98.72 384.25 98.72 384.25C106.89 384.25 111.43 384.25 112.34 384.25Z" id="e3HZAWJNcz"></path><path d="M221.84 350.21C221.84 350.21 221.84 350.21 221.84 350.21C221.84 356.33 221.84 359.74 221.84 360.42C221.84 360.42 221.84 360.42 221.84 360.42C150.71 360.42 111.2 360.42 103.3 360.42C103.3 360.42 103.3 360.42 103.3 360.42C103.3 354.29 103.3 350.89 103.3 350.21C103.3 350.21 103.3 350.21 103.3 350.21C174.42 350.21 213.94 350.21 221.84 350.21Z" id="c55AusMinU"></path><path d="M193.3 384.25C193.3 384.25 193.3 384.25 193.3 384.25C193.3 390.38 193.3 393.78 193.3 394.46C193.3 394.46 193.3 394.46 193.3 394.46C152.47 394.46 129.79 394.46 125.25 394.46C125.25 394.46 125.25 394.46 125.25 394.46C125.25 388.33 125.25 384.93 125.25 384.25C125.25 384.25 125.25 384.25 125.25 384.25C166.08 384.25 188.77 384.25 193.3 384.25Z" id="d5cb2pwbdh"></path><path d="M193.3 557.87C193.3 557.87 193.3 557.87 193.3 557.87C193.3 563.99 193.3 567.4 193.3 568.08C193.3 568.08 193.3 568.08 193.3 568.08C152.47 568.08 129.79 568.08 125.25 568.08C125.25 568.08 125.25 568.08 125.25 568.08C125.25 561.95 125.25 558.55 125.25 557.87C125.25 557.87 125.25 557.87 125.25 557.87C166.08 557.87 188.77 557.87 193.3 557.87Z" id="bcEYWzeJm"></path></defs><g><g><g><use xlink:href="#a1aK77mDMI" opacity="1" fill="#bc723e" fill-opacity="1"></use><g><use xlink:href="#a1aK77mDMI" opacity="1" fill-opacity="0" stroke="#000000" stroke-width="1" stroke-opacity="0"></use></g></g><g><use xlink:href="#e2nvpH4oUA" opacity="1" fill="#bc723e" fill-opacity="1"></use><g><use xlink:href="#e2nvpH4oUA" opacity="1" fill-opacity="0" stroke="#000000" stroke-width="1" stroke-opacity="0"></use></g></g><g><use xlink:href="#cBfIm0FwP" opacity="1" fill="#a26234" fill-opacity="1"></use><g><use xlink:href="#cBfIm0FwP" opacity="1" fill-opacity="0" stroke="#000000" stroke-width="1" stroke-opacity="0"></use></g></g><g><use xlink:href="#a1dKhi8V9R" opacity="1" fill="#a26234" fill-opacity="1"></use><g><use xlink:href="#a1dKhi8V9R" opacity="1" fill-opacity="0" stroke="#000000" stroke-width="1" stroke-opacity="0"></use></g></g><g><use xlink:href="#e1SgBacT4" opacity="1" fill="#845027" fill-opacity="1"></use><g><use xlink:href="#e1SgBacT4" opacity="1" fill-opacity="0" stroke="#000000" stroke-width="1" stroke-opacity="0"></use></g></g><g><use xlink:href="#a6BDWK87uU" opacity="1" fill="#845027" fill-opacity="1"></use><g><use xlink:href="#a6BDWK87uU" opacity="1" fill-opacity="0" stroke="#000000" stroke-width="1" stroke-opacity="0"></use></g></g><g><use xlink:href="#b715NNcvYc" opacity="1" fill="#845027" fill-opacity="1"></use><g><use xlink:href="#b715NNcvYc" opacity="1" fill-opacity="0" stroke="#000000" stroke-width="1" stroke-opacity="0"></use></g></g><g><use xlink:href="#c3hTbrX2Ei" opacity="1" fill="#845027" fill-opacity="1"></use><g><use xlink:href="#c3hTbrX2Ei" opacity="1" fill-opacity="0" stroke="#000000" stroke-width="1" stroke-opacity="0"></use></g></g><g><use xlink:href="#b1c1iMCQNO" opacity="1" fill="#523118" fill-opacity="1"></use><g><use xlink:href="#b1c1iMCQNO" opacity="1" fill-opacity="0" stroke="#000000" stroke-width="1" stroke-opacity="0"></use></g></g><g><use xlink:href="#aNo76WMzC" opacity="1" fill="#523118" fill-opacity="1"></use><g><use xlink:href="#aNo76WMzC" opacity="1" fill-opacity="0" stroke="#000000" stroke-width="1" stroke-opacity="0"></use></g></g><g><use xlink:href="#a6AhCC2IYu" opacity="1" fill="#523118" fill-opacity="1"></use><g><use xlink:href="#a6AhCC2IYu" opacity="1" fill-opacity="0" stroke="#000000" stroke-width="1" stroke-opacity="0"></use></g></g><g><use xlink:href="#ozfHTkeYX" opacity="1" fill="#845027" fill-opacity="1"></use><g><use xlink:href="#ozfHTkeYX" opacity="1" fill-opacity="0" stroke="#000000" stroke-width="1" stroke-opacity="0"></use></g></g><g><use xlink:href="#e2IsmYDp57" opacity="1" fill="#845027" fill-opacity="1"></use><g><use xlink:href="#e2IsmYDp57" opacity="1" fill-opacity="0" stroke="#000000" stroke-width="1" stroke-opacity="0"></use></g></g><g><use xlink:href="#bjsIipV0V" opacity="1" fill="#845027" fill-opacity="1"></use><g><use xlink:href="#bjsIipV0V" opacity="1" fill-opacity="0" stroke="#000000" stroke-width="1" stroke-opacity="0"></use></g></g><g><use xlink:href="#i9CDIjSMs" opacity="1" fill="#523118" fill-opacity="1"></use><g><use xlink:href="#i9CDIjSMs" opacity="1" fill-opacity="0" stroke="#000000" stroke-width="1" stroke-opacity="0"></use></g></g><g><use xlink:href="#l4fLqdz0Od" opacity="1" fill="#bc723e" fill-opacity="1"></use><g><use xlink:href="#l4fLqdz0Od" opacity="1" fill-opacity="0" stroke="#000000" stroke-width="1" stroke-opacity="0"></use></g></g><g><use xlink:href="#aKsYgKE3" opacity="1" fill="#bc723e" fill-opacity="1"></use><g><use xlink:href="#aKsYgKE3" opacity="1" fill-opacity="0" stroke="#000000" stroke-width="1" stroke-opacity="0"></use></g></g><g><use xlink:href="#bZp5d7tNu" opacity="1" fill="#a26234" fill-opacity="1"></use><g><use xlink:href="#bZp5d7tNu" opacity="1" fill-opacity="0" stroke="#000000" stroke-width="1" stroke-opacity="0"></use></g></g><g><use xlink:href="#c2Wa1r1oK" opacity="1" fill="#a26234" fill-opacity="1"></use><g><use xlink:href="#c2Wa1r1oK" opacity="1" fill-opacity="0" stroke="#000000" stroke-width="1" stroke-opacity="0"></use></g></g><g><use xlink:href="#bagK5BvkJ" opacity="1" fill="#845027" fill-opacity="1"></use><g><use xlink:href="#bagK5BvkJ" opacity="1" fill-opacity="0" stroke="#000000" stroke-width="1" stroke-opacity="0"></use></g></g><g><use xlink:href="#d61JzmFVgP" opacity="1" fill="#845027" fill-opacity="1"></use><g><use xlink:href="#d61JzmFVgP" opacity="1" fill-opacity="0" stroke="#000000" stroke-width="1" stroke-opacity="0"></use></g></g><g><use xlink:href="#b9UNZLRsR" opacity="1" fill="#845027" fill-opacity="1"></use><g><use xlink:href="#b9UNZLRsR" opacity="1" fill-opacity="0" stroke="#000000" stroke-width="1" stroke-opacity="0"></use></g></g><g><use xlink:href="#a2SMySpmpI" opacity="1" fill="#845027" fill-opacity="1"></use><g><use xlink:href="#a2SMySpmpI" opacity="1" fill-opacity="0" stroke="#000000" stroke-width="1" stroke-opacity="0"></use></g></g><g><use xlink:href="#d5qBbffoRH" opacity="1" fill="#845027" fill-opacity="1"></use><g><use xlink:href="#d5qBbffoRH" opacity="1" fill-opacity="0" stroke="#000000" stroke-width="1" stroke-opacity="0"></use></g></g><g><use xlink:href="#aRkzcGKm" opacity="1" fill="#845027" fill-opacity="1"></use><g><use xlink:href="#aRkzcGKm" opacity="1" fill-opacity="0" stroke="#000000" stroke-width="1" stroke-opacity="0"></use></g></g><g><use xlink:href="#c2dc6Yoh3D" opacity="1" fill="#845027" fill-opacity="1"></use><g><use xlink:href="#c2dc6Yoh3D" opacity="1" fill-opacity="0" stroke="#000000" stroke-width="1" stroke-opacity="0"></use></g></g><g><use xlink:href="#a18BfCqqjt" opacity="1" fill="#523118" fill-opacity="1"></use><g><use xlink:href="#a18BfCqqjt" opacity="1" fill-opacity="0" stroke="#000000" stroke-width="1" stroke-opacity="0"></use></g></g><g><use xlink:href="#b3Ssfpz9" opacity="1" fill="#845027" fill-opacity="1"></use><g><use xlink:href="#b3Ssfpz9" opacity="1" fill-opacity="0" stroke="#000000" stroke-width="1" stroke-opacity="0"></use></g></g><g><use xlink:href="#a1F8podEdG" opacity="1" fill="#523118" fill-opacity="1"></use><g><use xlink:href="#a1F8podEdG" opacity="1" fill-opacity="0" stroke="#000000" stroke-width="1" stroke-opacity="0"></use></g></g><g><use xlink:href="#a182JWk6LP" opacity="1" fill="#845027" fill-opacity="1"></use><g><use xlink:href="#a182JWk6LP" opacity="1" fill-opacity="0" stroke="#000000" stroke-width="1" stroke-opacity="0"></use></g></g><g><use xlink:href="#ax2CHrYw" opacity="1" fill="#845027" fill-opacity="1"></use><g><use xlink:href="#ax2CHrYw" opacity="1" fill-opacity="0" stroke="#000000" stroke-width="1" stroke-opacity="0"></use></g></g><g><use xlink:href="#a2WgZUosVP" opacity="1" fill="#845027" fill-opacity="1"></use><g><use xlink:href="#a2WgZUosVP" opacity="1" fill-opacity="0" stroke="#000000" stroke-width="1" stroke-opacity="0"></use></g></g><g><use xlink:href="#cMmgBSMe" opacity="1" fill="#523118" fill-opacity="1"></use><g><use xlink:href="#cMmgBSMe" opacity="1" fill-opacity="0" stroke="#000000" stroke-width="1" stroke-opacity="0"></use></g></g><g><use xlink:href="#j2mGpYAXZ8" opacity="1" fill="#845027" fill-opacity="1"></use><g><use xlink:href="#j2mGpYAXZ8" opacity="1" fill-opacity="0" stroke="#000000" stroke-width="1" stroke-opacity="0"></use></g></g><g><use xlink:href="#c2JHHRgNI7" opacity="1" fill="#845027" fill-opacity="1"></use><g><use xlink:href="#c2JHHRgNI7" opacity="1" fill-opacity="0" stroke="#000000" stroke-width="1" stroke-opacity="0"></use></g></g><g><use xlink:href="#a3S5rV8Jmo" opacity="1" fill="#845027" fill-opacity="1"></use><g><use xlink:href="#a3S5rV8Jmo" opacity="1" fill-opacity="0" stroke="#000000" stroke-width="1" stroke-opacity="0"></use></g></g><g><use xlink:href="#dYFOjmJHY" opacity="1" fill="#523118" fill-opacity="1"></use><g><use xlink:href="#dYFOjmJHY" opacity="1" fill-opacity="0" stroke="#000000" stroke-width="1" stroke-opacity="0"></use></g></g><g><use xlink:href="#b9bgSuNKT" opacity="1" fill="#bc723e" fill-opacity="1"></use><g><use xlink:href="#b9bgSuNKT" opacity="1" fill-opacity="0" stroke="#000000" stroke-width="1" stroke-opacity="0"></use></g></g><g><use xlink:href="#f3xrRCdNKS" opacity="1" fill="#bc723e" fill-opacity="1"></use><g><use xlink:href="#f3xrRCdNKS" opacity="1" fill-opacity="0" stroke="#000000" stroke-width="1" stroke-opacity="0"></use></g></g><g><use xlink:href="#bkqhezikn" opacity="1" fill="#a26234" fill-opacity="1"></use><g><use xlink:href="#bkqhezikn" opacity="1" fill-opacity="0" stroke="#000000" stroke-width="1" stroke-opacity="0"></use></g></g><g><use xlink:href="#bnTV1rTNx" opacity="1" fill="#a26234" fill-opacity="1"></use><g><use xlink:href="#bnTV1rTNx" opacity="1" fill-opacity="0" stroke="#000000" stroke-width="1" stroke-opacity="0"></use></g></g><g><use xlink:href="#a1cJv9Uz2l" opacity="1" fill="#845027" fill-opacity="1"></use><g><use xlink:href="#a1cJv9Uz2l" opacity="1" fill-opacity="0" stroke="#000000" stroke-width="1" stroke-opacity="0"></use></g></g><g><use xlink:href="#aTaGEofJy" opacity="1" fill="#845027" fill-opacity="1"></use><g><use xlink:href="#aTaGEofJy" opacity="1" fill-opacity="0" stroke="#000000" stroke-width="1" stroke-opacity="0"></use></g></g><g><use xlink:href="#b30y7jBdAw" opacity="1" fill="#845027" fill-opacity="1"></use><g><use xlink:href="#b30y7jBdAw" opacity="1" fill-opacity="0" stroke="#000000" stroke-width="1" stroke-opacity="0"></use></g></g><g><use xlink:href="#b19kOB64Vh" opacity="1" fill="#845027" fill-opacity="1"></use><g><use xlink:href="#b19kOB64Vh" opacity="1" fill-opacity="0" stroke="#000000" stroke-width="1" stroke-opacity="0"></use></g></g><g><use xlink:href="#b1f8Uk7HdJ" opacity="1" fill="#845027" fill-opacity="1"></use><g><use xlink:href="#b1f8Uk7HdJ" opacity="1" fill-opacity="0" stroke="#000000" stroke-width="1" stroke-opacity="0"></use></g></g><g><use xlink:href="#f7vahP34r" opacity="1" fill="#845027" fill-opacity="1"></use><g><use xlink:href="#f7vahP34r" opacity="1" fill-opacity="0" stroke="#000000" stroke-width="1" stroke-opacity="0"></use></g></g><g><use xlink:href="#frOXdsYoy" opacity="1" fill="#845027" fill-opacity="1"></use><g><use xlink:href="#frOXdsYoy" opacity="1" fill-opacity="0" stroke="#000000" stroke-width="1" stroke-opacity="0"></use></g></g><g><use xlink:href="#dgckUzxRq" opacity="1" fill="#523118" fill-opacity="1"></use><g><use xlink:href="#dgckUzxRq" opacity="1" fill-opacity="0" stroke="#000000" stroke-width="1" stroke-opacity="0"></use></g></g><g><use xlink:href="#c9QPTjWlU" opacity="1" fill="#845027" fill-opacity="1"></use><g><use xlink:href="#c9QPTjWlU" opacity="1" fill-opacity="0" stroke="#000000" stroke-width="1" stroke-opacity="0"></use></g></g><g><use xlink:href="#c3RVPFeQQL" opacity="1" fill="#523118" fill-opacity="1"></use><g><use xlink:href="#c3RVPFeQQL" opacity="1" fill-opacity="0" stroke="#000000" stroke-width="1" stroke-opacity="0"></use></g></g><g><use xlink:href="#a16GPy3nT7" opacity="1" fill="#845027" fill-opacity="1"></use><g><use xlink:href="#a16GPy3nT7" opacity="1" fill-opacity="0" stroke="#000000" stroke-width="1" stroke-opacity="0"></use></g></g><g><use xlink:href="#hSL33BgB" opacity="1" fill="#845027" fill-opacity="1"></use><g><use xlink:href="#hSL33BgB" opacity="1" fill-opacity="0" stroke="#000000" stroke-width="1" stroke-opacity="0"></use></g></g><g><use xlink:href="#b1i11uhTFw" opacity="1" fill="#845027" fill-opacity="1"></use><g><use xlink:href="#b1i11uhTFw" opacity="1" fill-opacity="0" stroke="#000000" stroke-width="1" stroke-opacity="0"></use></g></g><g><use xlink:href="#dD6P9YIf6" opacity="1" fill="#523118" fill-opacity="1"></use><g><use xlink:href="#dD6P9YIf6" opacity="1" fill-opacity="0" stroke="#000000" stroke-width="1" stroke-opacity="0"></use></g></g><g><use xlink:href="#d3P3NpbRg6" opacity="1" fill="#845027" fill-opacity="1"></use><g><use xlink:href="#d3P3NpbRg6" opacity="1" fill-opacity="0" stroke="#000000" stroke-width="1" stroke-opacity="0"></use></g></g><g><use xlink:href="#bVhLu35te" opacity="1" fill="#845027" fill-opacity="1"></use><g><use xlink:href="#bVhLu35te" opacity="1" fill-opacity="0" stroke="#000000" stroke-width="1" stroke-opacity="0"></use></g></g><g><use xlink:href="#b3QSOg6wuc" opacity="1" fill="#845027" fill-opacity="1"></use><g><use xlink:href="#b3QSOg6wuc" opacity="1" fill-opacity="0" stroke="#000000" stroke-width="1" stroke-opacity="0"></use></g></g><g><use xlink:href="#b221nO5Akb" opacity="1" fill="#523118" fill-opacity="1"></use><g><use xlink:href="#b221nO5Akb" opacity="1" fill-opacity="0" stroke="#000000" stroke-width="1" stroke-opacity="0"></use></g></g><g><use xlink:href="#b1M0bjhP5b" opacity="1" fill="#bc723e" fill-opacity="1"></use><g><use xlink:href="#b1M0bjhP5b" opacity="1" fill-opacity="0" stroke="#000000" stroke-width="1" stroke-opacity="0"></use></g></g><g><use xlink:href="#b12jdPMjKp" opacity="1" fill="#bc723e" fill-opacity="1"></use><g><use xlink:href="#b12jdPMjKp" opacity="1" fill-opacity="0" stroke="#000000" stroke-width="1" stroke-opacity="0"></use></g></g><g><use xlink:href="#a1na4r338h" opacity="1" fill="#a26234" fill-opacity="1"></use><g><use xlink:href="#a1na4r338h" opacity="1" fill-opacity="0" stroke="#000000" stroke-width="1" stroke-opacity="0"></use></g></g><g><use xlink:href="#b5Y3Eaq6kA" opacity="1" fill="#a26234" fill-opacity="1"></use><g><use xlink:href="#b5Y3Eaq6kA" opacity="1" fill-opacity="0" stroke="#000000" stroke-width="1" stroke-opacity="0"></use></g></g><g><use xlink:href="#k2Khc0yCgu" opacity="1" fill="#845027" fill-opacity="1"></use><g><use xlink:href="#k2Khc0yCgu" opacity="1" fill-opacity="0" stroke="#000000" stroke-width="1" stroke-opacity="0"></use></g></g><g><use xlink:href="#beypuzwWT" opacity="1" fill="#845027" fill-opacity="1"></use><g><use xlink:href="#beypuzwWT" opacity="1" fill-opacity="0" stroke="#000000" stroke-width="1" stroke-opacity="0"></use></g></g><g><use xlink:href="#b1SuILx4N" opacity="1" fill="#845027" fill-opacity="1"></use><g><use xlink:href="#b1SuILx4N" opacity="1" fill-opacity="0" stroke="#000000" stroke-width="1" stroke-opacity="0"></use></g></g><g><use xlink:href="#a55Um3Ef8Q" opacity="1" fill="#845027" fill-opacity="1"></use><g><use xlink:href="#a55Um3Ef8Q" opacity="1" fill-opacity="0" stroke="#000000" stroke-width="1" stroke-opacity="0"></use></g></g><g><use xlink:href="#c1SgZ8AT8" opacity="1" fill="#523118" fill-opacity="1"></use><g><use xlink:href="#c1SgZ8AT8" opacity="1" fill-opacity="0" stroke="#000000" stroke-width="1" stroke-opacity="0"></use></g></g><g><use xlink:href="#c1HQ0uA1Sp" opacity="1" fill="#523118" fill-opacity="1"></use><g><use xlink:href="#c1HQ0uA1Sp" opacity="1" fill-opacity="0" stroke="#000000" stroke-width="1" stroke-opacity="0"></use></g></g><g><use xlink:href="#a6W6i8OJvi" opacity="1" fill="#523118" fill-opacity="1"></use><g><use xlink:href="#a6W6i8OJvi" opacity="1" fill-opacity="0" stroke="#000000" stroke-width="1" stroke-opacity="0"></use></g></g><g><use xlink:href="#a1GvXoV2vZ" opacity="1" fill="#845027" fill-opacity="1"></use><g><use xlink:href="#a1GvXoV2vZ" opacity="1" fill-opacity="0" stroke="#000000" stroke-width="1" stroke-opacity="0"></use></g></g><g><use xlink:href="#d5zr5Rr1N" opacity="1" fill="#845027" fill-opacity="1"></use><g><use xlink:href="#d5zr5Rr1N" opacity="1" fill-opacity="0" stroke="#000000" stroke-width="1" stroke-opacity="0"></use></g></g><g><use xlink:href="#ad12J5cZX" opacity="1" fill="#845027" fill-opacity="1"></use><g><use xlink:href="#ad12J5cZX" opacity="1" fill-opacity="0" stroke="#000000" stroke-width="1" stroke-opacity="0"></use></g></g><g><use xlink:href="#bQXewnYkB" opacity="1" fill="#523118" fill-opacity="1"></use><g><use xlink:href="#bQXewnYkB" opacity="1" fill-opacity="0" stroke="#000000" stroke-width="1" stroke-opacity="0"></use></g></g><g><use xlink:href="#bjubQ2VsY" opacity="1" fill="#bc723e" fill-opacity="1"></use><g><use xlink:href="#bjubQ2VsY" opacity="1" fill-opacity="0" stroke="#000000" stroke-width="1" stroke-opacity="0"></use></g></g><g><use xlink:href="#h1swS6yjV" opacity="1" fill="#bc723e" fill-opacity="1"></use><g><use xlink:href="#h1swS6yjV" opacity="1" fill-opacity="0" stroke="#000000" stroke-width="1" stroke-opacity="0"></use></g></g><g><use xlink:href="#a19hxNhz93" opacity="1" fill="#a26234" fill-opacity="1"></use><g><use xlink:href="#a19hxNhz93" opacity="1" fill-opacity="0" stroke="#000000" stroke-width="1" stroke-opacity="0"></use></g></g><g><use xlink:href="#gcaHs2zhR" opacity="1" fill="#a26234" fill-opacity="1"></use><g><use xlink:href="#gcaHs2zhR" opacity="1" fill-opacity="0" stroke="#000000" stroke-width="1" stroke-opacity="0"></use></g></g><g><use xlink:href="#c1z29yHpfl" opacity="1" fill="#845027" fill-opacity="1"></use><g><use xlink:href="#c1z29yHpfl" opacity="1" fill-opacity="0" stroke="#000000" stroke-width="1" stroke-opacity="0"></use></g></g><g><use xlink:href="#d2uPf500Yr" opacity="1" fill="#845027" fill-opacity="1"></use><g><use xlink:href="#d2uPf500Yr" opacity="1" fill-opacity="0" stroke="#000000" stroke-width="1" stroke-opacity="0"></use></g></g><g><use xlink:href="#b3tLQJcW5G" opacity="1" fill="#845027" fill-opacity="1"></use><g><use xlink:href="#b3tLQJcW5G" opacity="1" fill-opacity="0" stroke="#000000" stroke-width="1" stroke-opacity="0"></use></g></g><g><use xlink:href="#baKNydihl" opacity="1" fill="#845027" fill-opacity="1"></use><g><use xlink:href="#baKNydihl" opacity="1" fill-opacity="0" stroke="#000000" stroke-width="1" stroke-opacity="0"></use></g></g><g><use xlink:href="#cJmWG8fDf" opacity="1" fill="#845027" fill-opacity="1"></use><g><use xlink:href="#cJmWG8fDf" opacity="1" fill-opacity="0" stroke="#000000" stroke-width="1" stroke-opacity="0"></use></g></g><g><use xlink:href="#bEWlPVMZT" opacity="1" fill="#845027" fill-opacity="1"></use><g><use xlink:href="#bEWlPVMZT" opacity="1" fill-opacity="0" stroke="#000000" stroke-width="1" stroke-opacity="0"></use></g></g><g><use xlink:href="#a5li7MN2K" opacity="1" fill="#845027" fill-opacity="1"></use><g><use xlink:href="#a5li7MN2K" opacity="1" fill-opacity="0" stroke="#000000" stroke-width="1" stroke-opacity="0"></use></g></g><g><use xlink:href="#a3NNeawffB" opacity="1" fill="#523118" fill-opacity="1"></use><g><use xlink:href="#a3NNeawffB" opacity="1" fill-opacity="0" stroke="#000000" stroke-width="1" stroke-opacity="0"></use></g></g><g><use xlink:href="#d5D5XEtfr" opacity="1" fill="#845027" fill-opacity="1"></use><g><use xlink:href="#d5D5XEtfr" opacity="1" fill-opacity="0" stroke="#000000" stroke-width="1" stroke-opacity="0"></use></g></g><g><use xlink:href="#c1tI5T4S2e" opacity="1" fill="#523118" fill-opacity="1"></use><g><use xlink:href="#c1tI5T4S2e" opacity="1" fill-opacity="0" stroke="#000000" stroke-width="1" stroke-opacity="0"></use></g></g><g><use xlink:href="#b6ddt8Rnp" opacity="1" fill="#845027" fill-opacity="1"></use><g><use xlink:href="#b6ddt8Rnp" opacity="1" fill-opacity="0" stroke="#000000" stroke-width="1" stroke-opacity="0"></use></g></g><g><use xlink:href="#a2RFVqeoF" opacity="1" fill="#845027" fill-opacity="1"></use><g><use xlink:href="#a2RFVqeoF" opacity="1" fill-opacity="0" stroke="#000000" stroke-width="1" stroke-opacity="0"></use></g></g><g><use xlink:href="#c8SR4yqrD" opacity="1" fill="#845027" fill-opacity="1"></use><g><use xlink:href="#c8SR4yqrD" opacity="1" fill-opacity="0" stroke="#000000" stroke-width="1" stroke-opacity="0"></use></g></g><g><use xlink:href="#g18jmxWuaH" opacity="1" fill="#523118" fill-opacity="1"></use><g><use xlink:href="#g18jmxWuaH" opacity="1" fill-opacity="0" stroke="#000000" stroke-width="1" stroke-opacity="0"></use></g></g><g><use xlink:href="#a1I0ffbJ9M" opacity="1" fill="#845027" fill-opacity="1"></use><g><use xlink:href="#a1I0ffbJ9M" opacity="1" fill-opacity="0" stroke="#000000" stroke-width="1" stroke-opacity="0"></use></g></g><g><use xlink:href="#d31SJeZh6n" opacity="1" fill="#845027" fill-opacity="1"></use><g><use xlink:href="#d31SJeZh6n" opacity="1" fill-opacity="0" stroke="#000000" stroke-width="1" stroke-opacity="0"></use></g></g><g><use xlink:href="#a1SlHxsbER" opacity="1" fill="#845027" fill-opacity="1"></use><g><use xlink:href="#a1SlHxsbER" opacity="1" fill-opacity="0" stroke="#000000" stroke-width="1" stroke-opacity="0"></use></g></g><g><use xlink:href="#b3i1afEfCL" opacity="1" fill="#523118" fill-opacity="1"></use><g><use xlink:href="#b3i1afEfCL" opacity="1" fill-opacity="0" stroke="#000000" stroke-width="1" stroke-opacity="0"></use></g></g><g><use xlink:href="#aTytZwFZ8" opacity="1" fill="#bc723e" fill-opacity="1"></use><g><use xlink:href="#aTytZwFZ8" opacity="1" fill-opacity="0" stroke="#000000" stroke-width="1" stroke-opacity="0"></use></g></g><g><use xlink:href="#a3k8mZETIe" opacity="1" fill="#bc723e" fill-opacity="1"></use><g><use xlink:href="#a3k8mZETIe" opacity="1" fill-opacity="0" stroke="#000000" stroke-width="1" stroke-opacity="0"></use></g></g><g><use xlink:href="#bdQEzvLf5" opacity="1" fill="#a26234" fill-opacity="1"></use><g><use xlink:href="#bdQEzvLf5" opacity="1" fill-opacity="0" stroke="#000000" stroke-width="1" stroke-opacity="0"></use></g></g><g><use xlink:href="#czM2XkhNo" opacity="1" fill="#a26234" fill-opacity="1"></use><g><use xlink:href="#czM2XkhNo" opacity="1" fill-opacity="0" stroke="#000000" stroke-width="1" stroke-opacity="0"></use></g></g><g><use xlink:href="#a4aWxZnM7A" opacity="1" fill="#845027" fill-opacity="1"></use><g><use xlink:href="#a4aWxZnM7A" opacity="1" fill-opacity="0" stroke="#000000" stroke-width="1" stroke-opacity="0"></use></g></g><g><use xlink:href="#b3TmvFsWzX" opacity="1" fill="#845027" fill-opacity="1"></use><g><use xlink:href="#b3TmvFsWzX" opacity="1" fill-opacity="0" stroke="#000000" stroke-width="1" stroke-opacity="0"></use></g></g><g><use xlink:href="#b5bqrDLek3" opacity="1" fill="#845027" fill-opacity="1"></use><g><use xlink:href="#b5bqrDLek3" opacity="1" fill-opacity="0" stroke="#000000" stroke-width="1" stroke-opacity="0"></use></g></g><g><use xlink:href="#d13ZBIzLUe" opacity="1" fill="#845027" fill-opacity="1"></use><g><use xlink:href="#d13ZBIzLUe" opacity="1" fill-opacity="0" stroke="#000000" stroke-width="1" stroke-opacity="0"></use></g></g><g><use xlink:href="#ehc5pnl8c" opacity="1" fill="#845027" fill-opacity="1"></use><g><use xlink:href="#ehc5pnl8c" opacity="1" fill-opacity="0" stroke="#000000" stroke-width="1" stroke-opacity="0"></use></g></g><g><use xlink:href="#apEKFktm8" opacity="1" fill="#845027" fill-opacity="1"></use><g><use xlink:href="#apEKFktm8" opacity="1" fill-opacity="0" stroke="#000000" stroke-width="1" stroke-opacity="0"></use></g></g><g><use xlink:href="#b4op6BkUOF" opacity="1" fill="#845027" fill-opacity="1"></use><g><use xlink:href="#b4op6BkUOF" opacity="1" fill-opacity="0" stroke="#000000" stroke-width="1" stroke-opacity="0"></use></g></g><g><use xlink:href="#a3KrQx7WtK" opacity="1" fill="#523118" fill-opacity="1"></use><g><use xlink:href="#a3KrQx7WtK" opacity="1" fill-opacity="0" stroke="#000000" stroke-width="1" stroke-opacity="0"></use></g></g><g><use xlink:href="#d3P4ThTXS" opacity="1" fill="#845027" fill-opacity="1"></use><g><use xlink:href="#d3P4ThTXS" opacity="1" fill-opacity="0" stroke="#000000" stroke-width="1" stroke-opacity="0"></use></g></g><g><use xlink:href="#a3bIx2TO0" opacity="1" fill="#523118" fill-opacity="1"></use><g><use xlink:href="#a3bIx2TO0" opacity="1" fill-opacity="0" stroke="#000000" stroke-width="1" stroke-opacity="0"></use></g></g><g><use xlink:href="#b16DUg3SEi" opacity="1" fill="#845027" fill-opacity="1"></use><g><use xlink:href="#b16DUg3SEi" opacity="1" fill-opacity="0" stroke="#000000" stroke-width="1" stroke-opacity="0"></use></g></g><g><use xlink:href="#aMYo5exiX" opacity="1" fill="#845027" fill-opacity="1"></use><g><use xlink:href="#aMYo5exiX" opacity="1" fill-opacity="0" stroke="#000000" stroke-width="1" stroke-opacity="0"></use></g></g><g><use xlink:href="#arSBv0oq1" opacity="1" fill="#845027" fill-opacity="1"></use><g><use xlink:href="#arSBv0oq1" opacity="1" fill-opacity="0" stroke="#000000" stroke-width="1" stroke-opacity="0"></use></g></g><g><use xlink:href="#c1SAN7gp7O" opacity="1" fill="#523118" fill-opacity="1"></use><g><use xlink:href="#c1SAN7gp7O" opacity="1" fill-opacity="0" stroke="#000000" stroke-width="1" stroke-opacity="0"></use></g></g><g><use xlink:href="#e3HZAWJNcz" opacity="1" fill="#845027" fill-opacity="1"></use><g><use xlink:href="#e3HZAWJNcz" opacity="1" fill-opacity="0" stroke="#000000" stroke-width="1" stroke-opacity="0"></use></g></g><g><use xlink:href="#c55AusMinU" opacity="1" fill="#845027" fill-opacity="1"></use><g><use xlink:href="#c55AusMinU" opacity="1" fill-opacity="0" stroke="#000000" stroke-width="1" stroke-opacity="0"></use></g></g><g><use xlink:href="#d5cb2pwbdh" opacity="1" fill="#845027" fill-opacity="1"></use><g><use xlink:href="#d5cb2pwbdh" opacity="1" fill-opacity="0" stroke="#000000" stroke-width="1" stroke-opacity="0"></use></g></g><g><use xlink:href="#bcEYWzeJm" opacity="1" fill="#523118" fill-opacity="1"></use><g><use xlink:href="#bcEYWzeJm" opacity="1" fill-opacity="0" stroke="#000000" stroke-width="1" stroke-opacity="0"></use></g></g></g></g></svg>