<?xml version="1.0" encoding="UTF-8" standalone="no"?>
<!DOCTYPE svg PUBLIC "-//W3C//DTD SVG 1.1//EN" "http://www.w3.org/Graphics/SVG/1.1/DTD/svg11.dtd">
<svg version="1.1" xmlns="http://www.w3.org/2000/svg" xmlns:xlink="http://www.w3.org/1999/xlink" preserveAspectRatio="xMidYMid meet" viewBox="0 0 640 640" width="40" height="40"><defs><path d="M-140.2 320C-140.2 184.47 -200.16 74.8 -273.94 74.8C-195.92 74.8 428.23 74.8 506.25 74.8C580.04 74.8 640 184.47 640 320C640 455.53 580.04 565.2 506.25 565.2C454.24 565.2 194.17 565.2 -273.94 565.2C-184.78 492.09 -140.2 410.35 -140.2 320Z" id="b2vZcvrl5"></path><path d="M-140.2 320C-140.2 455.53 -200.16 565.2 -273.94 565.2C-347.73 565.2 -407.69 455.53 -407.69 320C-407.69 184.47 -347.73 74.8 -273.94 74.8C-200.16 74.8 -140.2 184.47 -140.2 320Z" id="g3B2tJImwn"></path><path d="M506.25 565.2C580.04 565.2 640 455.53 640 320C561.98 320 -62.18 320 -140.2 320C-140.2 455.53 -200.16 565.2 -273.94 565.2C-117.91 565.2 428.23 565.2 506.25 565.2Z" id="a1amGFNUiO"></path><path d="M-328.78 230.17C-340.14 257.44 -346.39 293.3 -346.39 331.15C-343.05 331.15 -316.3 331.15 -312.95 331.15C-312.95 255.42 -287.18 214.12 -273.94 214.12C-273.94 211.89 -273.94 200.74 -273.94 180.68C-301.64 192.4 -319.91 208.9 -328.78 230.17Z" id="a3HK61owxa"></path><path d="M-234.94 331.15C-234.94 406.87 -260.71 448.18 -273.94 448.18C-273.94 451.52 -273.94 478.27 -273.94 481.61C-251.88 481.61 -232.41 464.03 -219.11 432.12C-207.75 404.85 -201.5 368.99 -201.5 331.15C-208.19 331.15 -231.59 331.15 -234.94 331.15Z" id="c245GmVNvU"></path><path d="M-312.96 364.58C-312.96 364.58 -312.96 364.58 -312.96 364.58C-312.96 391.33 -312.96 406.19 -312.96 409.16C-312.96 409.16 -312.96 409.16 -312.96 409.16C-333.02 409.16 -344.16 409.16 -346.39 409.16C-346.39 409.16 -346.39 409.16 -346.39 409.16C-346.39 382.42 -346.39 367.55 -346.39 364.58C-346.39 364.58 -346.39 364.58 -346.39 364.58C-326.33 364.58 -315.19 364.58 -312.96 364.58Z" id="bYoWZ88II"></path><path d="M-201.5 253.13C-201.5 253.13 -201.5 253.13 -201.5 253.13C-201.5 279.87 -201.5 294.73 -201.5 297.71C-201.5 297.71 -201.5 297.71 -201.5 297.71C-221.56 297.71 -232.71 297.71 -234.94 297.71C-234.94 297.71 -234.94 297.71 -234.94 297.71C-234.94 270.96 -234.94 256.1 -234.94 253.13C-234.94 253.13 -234.94 253.13 -234.94 253.13C-214.87 253.13 -203.73 253.13 -201.5 253.13Z" id="b6ipYnyHi"></path><path d="M512.27 376.62C512.27 376.62 512.27 376.62 512.27 376.62C512.27 396.68 512.27 407.83 512.27 410.06C512.27 410.06 512.27 410.06 512.27 410.06C485.52 410.06 470.66 410.06 467.69 410.06C467.69 410.06 467.69 410.06 467.69 410.06C467.69 389.99 467.69 378.85 467.69 376.62C467.69 376.62 467.69 376.62 467.69 376.62C494.44 376.62 509.3 376.62 512.27 376.62Z" id="k1HknvyVer"></path><path d="M427.3 454.78C427.3 454.78 427.3 454.78 427.3 454.78C427.3 474.84 427.3 485.98 427.3 488.21C427.3 488.21 427.3 488.21 427.3 488.21C219.99 488.21 104.82 488.21 81.78 488.21C81.78 488.21 81.78 488.21 81.78 488.21C81.78 468.15 81.78 457.01 81.78 454.78C81.78 454.78 81.78 454.78 81.78 454.78C289.09 454.78 404.26 454.78 427.3 454.78Z" id="cUh1zVLl7"></path><path d="M-39.89 269.84C-39.89 269.84 -39.89 269.84 -39.89 269.84C-39.89 289.91 -39.89 301.05 -39.89 303.28C-39.89 303.28 -39.89 303.28 -39.89 303.28C-66.64 303.28 -81.5 303.28 -84.47 303.28C-84.47 303.28 -84.47 303.28 -84.47 303.28C-84.47 283.22 -84.47 272.07 -84.47 269.84C-84.47 269.84 -84.47 269.84 -84.47 269.84C-57.72 269.84 -42.86 269.84 -39.89 269.84Z" id="a1T4HgTbyc"></path><path d="M150.64 158.39C150.64 158.39 150.64 158.39 150.64 158.39C150.64 178.45 150.64 189.59 150.64 191.82C150.64 191.82 150.64 191.82 150.64 191.82C16.26 191.82 -58.39 191.82 -73.32 191.82C-73.32 191.82 -73.32 191.82 -73.32 191.82C-73.32 171.76 -73.32 160.62 -73.32 158.39C-73.32 158.39 -73.32 158.39 -73.32 158.39C61.05 158.39 135.71 158.39 150.64 158.39Z" id="a7Weg0ZJa"></path></defs><g><g><g><use xlink:href="#b2vZcvrl5" opacity="1" fill="#a26234" fill-opacity="1"></use><g><use xlink:href="#b2vZcvrl5" opacity="1" fill-opacity="0" stroke="#000000" stroke-width="1" stroke-opacity="0"></use></g></g><g><use xlink:href="#g3B2tJImwn" opacity="1" fill="#bc723e" fill-opacity="1"></use><g><use xlink:href="#g3B2tJImwn" opacity="1" fill-opacity="0" stroke="#000000" stroke-width="1" stroke-opacity="0"></use></g></g><g><use xlink:href="#a1amGFNUiO" opacity="1" fill="#845027" fill-opacity="1"></use><g><use xlink:href="#a1amGFNUiO" opacity="1" fill-opacity="0" stroke="#000000" stroke-width="1" stroke-opacity="0"></use></g></g><g><use xlink:href="#a3HK61owxa" opacity="1" fill="#845027" fill-opacity="1"></use><g><use xlink:href="#a3HK61owxa" opacity="1" fill-opacity="0" stroke="#000000" stroke-width="1" stroke-opacity="0"></use></g></g><g><use xlink:href="#c245GmVNvU" opacity="1" fill="#845027" fill-opacity="1"></use><g><use xlink:href="#c245GmVNvU" opacity="1" fill-opacity="0" stroke="#000000" stroke-width="1" stroke-opacity="0"></use></g></g><g><use xlink:href="#bYoWZ88II" opacity="1" fill="#845027" fill-opacity="1"></use><g><use xlink:href="#bYoWZ88II" opacity="1" fill-opacity="0" stroke="#000000" stroke-width="1" stroke-opacity="0"></use></g></g><g><use xlink:href="#b6ipYnyHi" opacity="1" fill="#845027" fill-opacity="1"></use><g><use xlink:href="#b6ipYnyHi" opacity="1" fill-opacity="0" stroke="#000000" stroke-width="1" stroke-opacity="0"></use></g></g><g><use xlink:href="#k1HknvyVer" opacity="1" fill="#a26234" fill-opacity="1"></use><g><use xlink:href="#k1HknvyVer" opacity="1" fill-opacity="0" stroke="#000000" stroke-width="1" stroke-opacity="0"></use></g></g><g><use xlink:href="#cUh1zVLl7" opacity="1" fill="#a26234" fill-opacity="1"></use><g><use xlink:href="#cUh1zVLl7" opacity="1" fill-opacity="0" stroke="#000000" stroke-width="1" stroke-opacity="0"></use></g></g><g><use xlink:href="#a1T4HgTbyc" opacity="1" fill="#845027" fill-opacity="1"></use><g><use xlink:href="#a1T4HgTbyc" opacity="1" fill-opacity="0" stroke="#000000" stroke-width="1" stroke-opacity="0"></use></g></g><g><use xlink:href="#a7Weg0ZJa" opacity="1" fill="#845027" fill-opacity="1"></use><g><use xlink:href="#a7Weg0ZJa" opacity="1" fill-opacity="0" stroke="#000000" stroke-width="1" stroke-opacity="0"></use></g></g></g></g></svg>