<?xml version="1.0" encoding="UTF-8" standalone="no"?>
<!DOCTYPE svg PUBLIC "-//W3C//DTD SVG 1.1//EN" "http://www.w3.org/Graphics/SVG/1.1/DTD/svg11.dtd">
<svg version="1.1" xmlns="http://www.w3.org/2000/svg" xmlns:xlink="http://www.w3.org/1999/xlink" preserveAspectRatio="xMidYMid meet" viewBox="0 0 640 640" width="200" height="200"><defs><path d="M303.07 507.44L303.07 470.54L347.37 470.54L347.37 507.44L303.07 507.44ZM278.86 340.3L278.86 376.29L278.31 376.29L278.86 376.63L204.76 471.46L278.86 471.46L278.86 507.44L154.96 507.44L154.97 472.24L154.92 472.21L154.97 472.15L154.96 471.46L155.51 471.46L238.43 365.35L238.43 364.4L195.4 364.4L195.4 376.29L154.96 376.29L154.96 340.3L175.18 340.3L175.18 328.41L258.64 328.41L258.64 340.3L278.86 340.3ZM440.79 507.44L440.79 470.54L485.08 470.54L485.08 507.44L440.79 507.44ZM371.93 507.44L371.93 470.54L416.22 470.54L416.22 507.44L371.93 507.44ZM371.93 311.59L371.93 274.68L416.23 274.68L416.23 311.59L371.93 311.59ZM278.86 274.68L278.86 311.59L154.92 311.59L154.92 274.68L198.85 274.68L198.85 169.46L165.92 169.46L165.92 132.56L234.92 132.56L234.92 274.68L278.86 274.68ZM303.07 311.59L303.07 274.68L347.37 274.68L347.37 311.59L303.07 311.59ZM440.79 311.59L440.79 274.68L485.08 274.68L485.08 311.59L440.79 311.59Z" id="c4oAkH1ATH"></path></defs><g><g><g><use xlink:href="#c4oAkH1ATH" opacity="1" fill="#000000" fill-opacity="1"></use></g></g></g></svg>